<?xml version="1.0" encoding="UTF-8" standalone="no"?>
<!-- Created with Inkscape (http://www.inkscape.org/) -->

<svg
   xmlns:dc="http://purl.org/dc/elements/1.1/"
   xmlns:cc="http://creativecommons.org/ns#"
   xmlns:rdf="http://www.w3.org/1999/02/22-rdf-syntax-ns#"
   xmlns:svg="http://www.w3.org/2000/svg"
   xmlns="http://www.w3.org/2000/svg"
   xmlns:xlink="http://www.w3.org/1999/xlink"
   xmlns:sodipodi="http://sodipodi.sourceforge.net/DTD/sodipodi-0.dtd"
   xmlns:inkscape="http://www.inkscape.org/namespaces/inkscape"
   width="55.369492mm"
   height="47.90765mm"
   viewBox="0 0 55.369492 47.90765"
   version="1.1"
   id="svg8"
   inkscape:version="0.92.1 r15371"
   sodipodi:docname="icon2.svg">
  <defs
     id="defs2">
    <linearGradient
       id="linearGradient5796"
       inkscape:collect="always">
      <stop
         id="stop5792"
         offset="0"
         style="stop-color:#fead00;stop-opacity:1" />
      <stop
         id="stop5794"
         offset="1"
         style="stop-color:#fffd00;stop-opacity:0.93896711" />
    </linearGradient>
    <linearGradient
       inkscape:collect="always"
       id="linearGradient5784">
      <stop
         style="stop-color:#e47f19;stop-opacity:1;"
         offset="0"
         id="stop5780" />
      <stop
         style="stop-color:#e47f19;stop-opacity:0;"
         offset="1"
         id="stop5782" />
    </linearGradient>
    <linearGradient
       inkscape:collect="always"
       id="linearGradient4534">
      <stop
         style="stop-color:#f7d236;stop-opacity:1;"
         offset="0"
         id="stop4530" />
      <stop
         style="stop-color:#fffd00;stop-opacity:0.93896711"
         offset="1"
         id="stop4532" />
    </linearGradient>
    <linearGradient
       inkscape:collect="always"
       xlink:href="#linearGradient4534"
       id="linearGradient4536"
       x1="116.60766"
       y1="119.0677"
       x2="144.38489"
       y2="119.0677"
       gradientUnits="userSpaceOnUse" />
    <linearGradient
       inkscape:collect="always"
       xlink:href="#linearGradient5784"
       id="linearGradient5788"
       x1="96.514359"
       y1="125.25003"
       x2="124.94034"
       y2="125.45049"
       gradientUnits="userSpaceOnUse" />
    <radialGradient
       inkscape:collect="always"
       xlink:href="#linearGradient5796"
       id="radialGradient5790"
       cx="110.5603"
       cy="125.49829"
       fx="110.5603"
       fy="125.49829"
       r="14.380037"
       gradientTransform="matrix(1,0,0,0.80742898,0,24.119527)"
       gradientUnits="userSpaceOnUse" />
  </defs>
  <sodipodi:namedview
     id="base"
     pagecolor="#ffffff"
     bordercolor="#666666"
     borderopacity="1.0"
     inkscape:pageopacity="0.0"
     inkscape:pageshadow="2"
     inkscape:zoom="3.959798"
     inkscape:cx="51.166429"
     inkscape:cy="98.08299"
     inkscape:document-units="mm"
     inkscape:current-layer="layer1"
     showgrid="false"
     inkscape:snap-global="false"
     fit-margin-top="0"
     fit-margin-left="0"
     fit-margin-right="0"
     fit-margin-bottom="0"
     inkscape:window-width="1536"
     inkscape:window-height="793"
     inkscape:window-x="-8"
     inkscape:window-y="-8"
     inkscape:window-maximized="1" />
  <metadata
     id="metadata5">
    <rdf:RDF>
      <cc:Work
         rdf:about="">
        <dc:format>image/svg+xml</dc:format>
        <dc:type
           rdf:resource="http://purl.org/dc/dcmitype/StillImage" />
        <dc:title />
      </cc:Work>
    </rdf:RDF>
  </metadata>
  <g
     inkscape:label="Layer 1"
     inkscape:groupmode="layer"
     id="layer1"
     transform="translate(-83.44025,-101.44498)">
    <path
       sodipodi:type="star"
       style="fill:#000000;fill-opacity:1;stroke:#f7d236;stroke-width:0.26458332;stroke-opacity:0.99061028"
       id="path4519"
       sodipodi:sides="4"
       sodipodi:cx="97.328865"
       sodipodi:cy="127.05246"
       sodipodi:r1="13.709781"
       sodipodi:r2="9.6942787"
       sodipodi:arg1="1.5363272"
       sodipodi:arg2="2.3217254"
       inkscape:flatsided="true"
       inkscape:rounded="0"
       inkscape:randomized="0"
       d="M 97.801336,140.7541 83.627228,127.52493 96.856394,113.35082 111.0305,126.57999 Z"
       inkscape:transform-center-x="1.0380952e-006"
       inkscape:transform-center-y="-1.3262561e-006" />
    <path
       inkscape:transform-center-y="-1.3262561e-006"
       inkscape:transform-center-x="1.0380952e-006"
       d="m 125.3936,139.99814 -14.17411,-13.22917 13.22917,-14.17411 14.1741,13.22917 z"
       inkscape:randomized="0"
       inkscape:rounded="0"
       inkscape:flatsided="true"
       sodipodi:arg2="2.3217254"
       sodipodi:arg1="1.5363272"
       sodipodi:r2="9.6942787"
       sodipodi:r1="13.709781"
       sodipodi:cy="126.2965"
       sodipodi:cx="124.92113"
       sodipodi:sides="4"
       id="path4521"
       style="fill:#000000;fill-opacity:1;stroke:#f7d236;stroke-width:0.26458332;stroke-opacity:0.99061028"
       sodipodi:type="star" />
    <path
       sodipodi:type="star"
       style="fill:#000000;fill-opacity:1;stroke:#f7d236;stroke-width:0.26458332;stroke-opacity:0.99061028"
       id="path4523"
       sodipodi:sides="4"
       sodipodi:cx="130.49628"
       sodipodi:cy="119.0677"
       sodipodi:r1="13.709781"
       sodipodi:r2="9.6942787"
       sodipodi:arg1="1.5363272"
       sodipodi:arg2="2.3217254"
       inkscape:flatsided="true"
       inkscape:rounded="0"
       inkscape:randomized="0"
       d="m 130.96875,132.76934 -14.17411,-13.22917 13.22917,-14.1741 14.1741,13.22916 z"
       inkscape:transform-center-x="-4.5693511e-006"
       transform="matrix(1.7279048,0,0,1.7247095,-114.45463,-79.958389)"
       inkscape:transform-center-y="1.9676868e-006" />
    <path
       inkscape:transform-center-y="-2.0494468e-006"
       transform="matrix(1.5609391,0,0,1.5991194,-92.524485,-65.240909)"
       inkscape:transform-center-x="-6.0855835e-006"
       d="m 130.96875,132.76934 -14.17411,-13.22917 13.22917,-14.1741 14.1741,13.22916 z"
       inkscape:randomized="0"
       inkscape:rounded="0"
       inkscape:flatsided="true"
       sodipodi:arg2="2.3217254"
       sodipodi:arg1="1.5363272"
       sodipodi:r2="9.6942787"
       sodipodi:r1="13.709781"
       sodipodi:cy="119.0677"
       sodipodi:cx="130.49628"
       sodipodi:sides="4"
       id="path4630"
       style="fill:#000000;fill-opacity:1;stroke:url(#linearGradient4536);stroke-width:0.26458332;stroke-opacity:0.99061028"
       sodipodi:type="star" />
    <path
       style="fill:url(#linearGradient5788);stroke:url(#radialGradient5790);stroke-width:0.147;stroke-miterlimit:4;stroke-dasharray:none;stroke-opacity:1;fill-opacity:1"
       d="m 109.16515,136.77335 c -0.68756,-0.0226 -1.10134,-0.0566 -1.13769,-0.0934 -0.0314,-0.0318 -0.22707,-0.0696 -0.43477,-0.0839 -0.37825,-0.026 -1.42806,-0.23364 -1.82896,-0.36169 -0.50491,-0.16127 -1.43815,-0.63889 -1.49982,-0.76757 -0.0203,-0.0423 -0.12861,-0.12604 -0.24076,-0.18607 -0.11685,-0.0625 -0.35388,-0.28299 -0.55491,-0.51602 -0.19306,-0.2238 -0.40863,-0.46649 -0.47906,-0.53931 -0.0704,-0.0728 -0.23851,-0.27604 -0.3735,-0.45158 -0.2133,-0.27737 -0.24544,-0.34614 -0.24544,-0.52515 0,-0.24077 -0.052,-0.30809 -0.25629,-0.33176 -0.12387,-0.0143 -0.14863,-0.0374 -0.14573,-0.13577 0.002,-0.0799 -0.0264,-0.12766 -0.0885,-0.14665 -0.0506,-0.0155 -0.58999,-0.0339 -1.1987,-0.0408 -1.038104,-0.0119 -1.119658,-0.0198 -1.314436,-0.12771 -0.114245,-0.0633 -0.259375,-0.16002 -0.322589,-0.21498 -0.06315,-0.055 -0.219327,-0.14837 -0.346946,-0.20759 -0.127599,-0.0592 -0.26097,-0.15316 -0.296351,-0.20879 -0.0354,-0.0556 -0.208397,-0.1998 -0.384475,-0.32039 -0.443298,-0.30361 -0.981334,-0.8359 -1.114141,-1.10229 -0.432444,-0.86738 -0.421866,-1.58541 0.03253,-2.2091 0.258025,-0.35414 0.410596,-0.69046 0.43103,-0.95008 0.0169,-0.21382 -0.0064,-0.30161 -0.181734,-0.70921 -0.18942,-0.43857 -0.19817,-0.47641 -0.152816,-0.66127 0.08122,-0.33124 0.208567,-0.41024 0.660084,-0.40969 0.384177,4.4e-4 0.390471,-0.002 0.498826,-0.16254 0.108473,-0.16117 0.111184,-0.16205 0.243322,-0.0787 0.07346,0.0464 0.14414,0.0844 0.157047,0.0844 0.01286,0 0.02349,-0.11576 0.02349,-0.25723 0,-0.14147 0.01956,-0.31993 0.04338,-0.39658 0.03593,-0.11562 0.05422,-0.12844 0.106707,-0.0752 0.03476,0.0353 0.06336,0.0819 0.06336,0.10354 0,0.0217 0.02839,0.12248 0.06315,0.22404 0.0606,0.17703 0.06836,0.18223 0.190622,0.12592 0.110949,-0.0511 0.140441,-0.0438 0.227693,0.0563 0.123037,0.14115 0.136465,0.1415 0.29062,0.007 0.06804,-0.0592 0.141398,-0.0942 0.163065,-0.0778 0.03902,0.0295 0.0842,-0.1772 0.16989,-0.7789 0.02456,-0.17201 0.09408,-0.65284 0.154562,-1.06852 0.20955,-1.44013 0.23048,-1.59336 0.32026,-2.34554 0.11496,-0.96312 0.20384,-1.5526 0.26058,-1.72825 l 0.0449,-0.13851 1.97066,-0.0356 c 2.42318,-0.0437 3.32669,-0.0493 3.9342,-0.0242 0.25825,0.0106 0.93535,0.006 1.50467,-0.0102 0.74588,-0.0213 1.03481,-0.0134 1.03401,0.0284 -0.002,0.0919 0.24875,1.5384 0.43434,2.50773 0.0932,0.48734 0.19728,1.03855 0.23108,1.22489 0.0338,0.18634 0.11904,0.62422 0.18945,0.97308 0.0704,0.34886 0.12802,0.64486 0.12802,0.65779 0,0.0129 0.11484,0.0511 0.25522,0.0848 0.19511,0.0469 0.27806,0.0469 0.35216,3e-4 0.15803,-0.0996 0.289,-0.26788 0.289,-0.37147 0,-0.14645 0.0991,-0.16304 0.26396,-0.0442 l 0.14823,0.10679 0.0863,-0.11714 c 0.0475,-0.0644 0.0987,-0.15961 0.11366,-0.21153 0.0212,-0.0729 0.0639,-0.0907 0.18777,-0.0782 l 0.16041,0.0162 0.0128,0.29537 c 0.007,0.16799 0.0377,0.32074 0.0707,0.3542 0.0332,0.0336 0.29398,0.0698 0.60812,0.0844 l 0.55007,0.0256 0.39173,-0.72056 c 0.35597,-0.65474 0.56892,-1.15198 1.21093,-2.82753 0.66126,-1.72579 0.95163,-2.21226 1.36044,-2.27921 0.13144,-0.0215 0.18171,8.9e-4 0.3102,0.13871 0.18878,0.20239 0.3299,0.5459 0.3299,0.80304 0,0.24033 0.1011,0.30219 0.53356,0.32639 0.16434,0.009 0.34161,0.0297 0.39393,0.0455 0.0756,0.0229 0.11625,-0.0115 0.19793,-0.1674 0.21991,-0.41978 0.4878,-0.63923 0.7803,-0.63923 0.17896,0 0.24858,0.0273 0.35912,0.14091 0.0755,0.0775 0.16081,0.21237 0.18974,0.2997 0.0682,0.206 0.0824,3.33097 0.0193,4.25046 -0.0553,0.80653 -0.0732,1.30891 -0.0496,1.39429 0.01,0.0358 0.0481,0.0651 0.0847,0.0651 0.0367,0 0.10004,0.0367 0.14055,0.0815 0.0867,0.0959 0.27038,0.10888 0.43287,0.0305 0.14464,-0.0697 0.40671,-0.49873 0.44296,-0.72505 0.0332,-0.2065 0.0674,-0.23802 0.1649,-0.15104 0.0937,0.0836 0.14323,0.41278 0.10345,0.68587 -0.0424,0.29101 -0.0118,0.3954 0.16537,0.56101 0.15208,0.14225 0.4607,0.28816 0.50224,0.23745 0.0118,-0.0144 0.026,-0.89771 0.0317,-1.96296 l 0.0106,-1.93683 h -0.14953 c -0.11166,1e-5 -0.24102,-0.0759 -0.51098,-0.29973 -0.1988,-0.16486 -0.38574,-0.35837 -0.41542,-0.43001 -0.12063,-0.29111 -0.007,-0.85617 0.24102,-1.19799 l 0.094,-0.12949 -0.16975,-0.18324 c -0.16691,-0.18017 -0.43387,-0.60122 -0.43387,-0.6843 0,-0.0233 0.0808,-0.13706 0.17933,-0.25279 0.12946,-0.15189 0.21556,-0.21044 0.30949,-0.21046 0.10312,-2e-5 0.16819,-0.054 0.3141,-0.26089 0.24255,-0.34391 0.39227,-0.43633 0.63491,-0.39191 0.1796,0.0329 0.19629,0.0246 0.34653,-0.17171 0.22506,-0.29411 0.3658,-0.37011 0.58061,-0.31358 0.0968,0.0255 0.21733,0.10442 0.2701,0.1769 0.0944,0.12974 0.0964,0.13008 0.23476,0.0386 0.0998,-0.0661 0.23052,-0.0915 0.45964,-0.0893 0.26706,0.002 0.36937,0.0307 0.61699,0.17025 0.16327,0.092 0.33134,0.20537 0.37351,0.25196 0.10057,0.11114 0.0972,0.28324 -0.009,0.44781 -0.0471,0.073 -0.0749,0.16616 -0.0621,0.20705 0.0129,0.0409 0.14077,0.17785 0.28426,0.30434 0.39902,0.35174 0.63179,0.64076 0.63099,0.78345 -9.7e-4,0.16495 -0.16426,0.50678 -0.3015,0.63098 -0.0606,0.0548 -0.18565,0.12039 -0.27796,0.14571 -0.32979,0.0905 -0.48698,0.19875 -0.48698,0.33541 0,0.0696 0.0192,0.14102 0.0427,0.15874 0.0235,0.0177 0.0426,0.11015 0.0426,0.20539 0,0.33925 -0.41462,0.67244 -0.6906,0.55496 -0.218,-0.0928 -0.31839,-0.0681 -0.43989,0.10821 -0.0625,0.0907 -0.16284,0.21217 -0.22299,0.26995 -0.14795,0.14211 -0.46693,0.19941 -0.6314,0.11344 -0.29407,-0.15374 -0.40748,-0.19365 -0.46876,-0.16493 -0.0935,0.0438 -0.0847,1.1136 0.0211,2.58766 0.0464,0.64502 0.0844,1.19908 0.0845,1.23125 1.1e-4,0.0322 0.082,0.0744 0.18174,0.0939 0.25725,0.0501 0.35592,0.14692 0.49672,0.48722 0.19971,0.48269 0.25121,0.51475 1.10297,0.68668 0.65356,0.13193 1.1665,0.33886 1.33317,0.53784 0.19174,0.22891 0.29551,0.73391 0.23134,1.12573 -0.0498,0.30378 -0.17583,0.40595 -0.55305,0.44813 -0.23825,0.0266 -0.36353,0.0665 -0.42409,0.13479 -0.15019,0.16942 -0.38114,0.2525 -0.79361,0.28549 -0.22056,0.0176 -0.49284,0.0538 -0.6051,0.0804 -0.35889,0.085 -1.57342,0.15178 -1.95152,0.10726 -0.19955,-0.0235 -0.37984,-0.0312 -0.40063,-0.0171 -0.0207,0.0141 0.0316,0.0768 0.11649,0.13937 0.20203,0.14889 0.89593,1.03281 1.03984,1.32458 0.15135,0.30691 0.31138,0.85711 0.31138,1.0706 0,0.26673 -0.0494,0.51816 -0.0873,0.44352 -0.0216,-0.0427 -0.062,0.006 -0.12058,0.14663 -0.0942,0.22541 -0.68363,0.9115 -1.01887,1.18589 -0.307,0.25128 -0.70921,0.43471 -2.0174,0.92002 -0.15261,0.0566 -0.34471,0.1238 -0.42686,0.14932 -0.0822,0.0255 -0.3703,0.12022 -0.64029,0.21046 -0.26999,0.0902 -0.61573,0.1992 -0.76834,0.24214 -0.1526,0.0429 -0.47203,0.13446 -0.70986,0.2034 -0.2378,0.0689 -0.4683,0.12529 -0.51222,0.12525 -0.0439,-4e-5 -0.24311,0.0452 -0.44266,0.10051 -0.19955,0.0553 -0.56452,0.12606 -0.81102,0.15718 -0.24651,0.0311 -0.6595,0.0953 -0.91774,0.14253 -0.28381,0.0519 -0.70592,0.0837 -1.06714,0.0802 -0.32867,-0.003 -0.94334,0.0341 -1.36594,0.0827 -0.61306,0.0706 -0.98669,0.0812 -1.84889,0.0529 z m 1.93428,-0.17352 c 0.28172,-0.0415 0.82917,-0.076 1.21653,-0.0766 0.42917,-7.3e-4 0.82938,-0.0302 1.02446,-0.0756 0.17608,-0.041 0.56024,-0.10024 0.85371,-0.13165 0.80869,-0.0866 1.6648,-0.31604 4.18318,-1.12123 0.64836,-0.20729 1.70863,-0.62796 1.94219,-0.77057 0.43485,-0.26551 1.04697,-0.92794 1.3079,-1.41536 0.21347,-0.39878 0.22247,-0.67633 0.0372,-1.1501 -0.23025,-0.5891 -1.10401,-1.69943 -1.4188,-1.80294 -0.0897,-0.0295 -0.16118,-0.0856 -0.16118,-0.12653 0,-0.0578 0.0525,-0.068 0.24544,-0.0475 0.43279,0.046 1.81421,0.0261 2.14495,-0.031 0.17609,-0.0304 0.5276,-0.079 0.78112,-0.10817 0.5451,-0.0626 0.76267,-0.13929 0.81604,-0.28764 0.0334,-0.0926 0.0997,-0.11741 0.44821,-0.16709 0.51014,-0.0727 0.55845,-0.12686 0.55845,-0.62561 0,-0.82812 -0.24545,-1.01123 -1.80306,-1.34507 -0.51865,-0.11116 -0.63661,-0.19715 -0.79474,-0.57937 -0.16684,-0.40321 -0.26069,-0.49881 -0.49582,-0.50496 -0.19019,-0.005 -0.1912,-0.006 -0.21184,-0.21349 -0.0842,-0.84671 -0.18839,-2.51354 -0.19214,-3.07383 -0.004,-0.65121 -0.0465,-0.89053 -0.1186,-0.67472 -0.0184,0.055 -0.0334,0.93847 -0.0334,1.96334 v 1.8634 h -0.15728 c -0.2166,-10e-6 -0.34252,-0.0673 -0.54596,-0.2917 l -0.17414,-0.1921 0.0106,-0.46126 c 0.006,-0.25369 -0.008,-0.48406 -0.0314,-0.51193 -0.0269,-0.0328 -0.0831,0.0464 -0.15966,0.2249 -0.065,0.15157 -0.17326,0.35593 -0.24059,0.45413 l -0.12242,0.17853 -0.38848,-0.007 -0.3885,-0.007 v 0.45673 c 0,0.30301 -0.018,0.47415 -0.0534,0.50852 -0.0293,0.0285 -0.15901,0.0807 -0.28812,0.11591 -0.52938,0.14461 -0.77917,0.24101 -0.85892,0.33153 -0.0693,0.0787 -0.0958,0.0839 -0.14965,0.0292 -0.036,-0.0365 -0.0566,-0.11462 -0.0456,-0.17373 0.1179,-0.63994 0.24145,-1.50209 0.22111,-1.54227 -0.0141,-0.0279 -0.0912,-0.0507 -0.17155,-0.0507 -0.0803,0 -0.27387,-0.0588 -0.43027,-0.13071 -0.15641,-0.0719 -0.38635,-0.14534 -0.51099,-0.16323 -0.26588,-0.0382 -0.26647,-0.0369 -0.28426,0.6056 -0.0106,0.38422 -0.0126,0.39048 -0.13886,0.43455 -0.0704,0.0246 -0.21529,0.0784 -0.3219,0.11967 -0.10658,0.0412 -0.23226,0.0685 -0.27925,0.0606 -0.0606,-0.0102 -0.20264,0.13743 -0.48914,0.50839 -0.56159,0.72717 -0.77272,0.95523 -1.21473,1.31214 -0.48869,0.3946 -0.50373,0.40063 -0.61375,0.2461 -0.0538,-0.0755 -0.13739,-0.12694 -0.20768,-0.12778 -0.16065,-0.002 -0.61477,-0.24743 -0.9482,-0.51262 -0.28996,-0.2306 -0.44332,-0.25085 -0.60278,-0.0796 -0.037,0.0398 -0.0794,0.0724 -0.0942,0.0724 -0.0393,0 -0.37202,-0.70951 -0.37202,-0.79343 0,-0.0394 0.12006,-0.1634 0.26678,-0.27562 0.33345,-0.25501 0.94783,-0.97525 1.25227,-1.46806 0.12709,-0.2057 0.23106,-0.38562 0.23106,-0.39981 0,-0.0142 -0.24892,-0.0335 -0.55316,-0.043 -0.63952,-0.0199 -0.68103,-0.0486 -0.68337,-0.47325 -0.001,-0.30418 -0.0717,-0.32375 -0.23322,-0.0652 -0.12459,0.19945 -0.31108,0.24746 -0.4079,0.105 -0.045,-0.0661 -0.0814,-0.0383 -0.24873,0.18893 l -0.19611,0.26634 -0.29006,-0.0329 c -0.22321,-0.0253 -0.29006,-0.0173 -0.29006,0.0348 0,0.0372 0.0889,0.45373 0.19758,0.92555 0.18273,0.79333 0.40002,1.91457 0.40002,2.06413 0,0.0678 -0.0562,0.0947 -0.30453,0.14561 -0.124,0.0255 -0.16123,0.0133 -0.18561,-0.0606 -0.0335,-0.10155 -0.14888,-0.7431 -0.27911,-1.55188 -0.0461,-0.28667 -0.11354,-0.69715 -0.14967,-0.91215 -0.0361,-0.21501 -0.12364,-0.77769 -0.19441,-1.25039 -0.0707,-0.4727 -0.20282,-1.17636 -0.29345,-1.56368 -0.0907,-0.38733 -0.20362,-0.90361 -0.25109,-1.14728 -0.14799,-0.7597 -0.15391,-0.76084 -0.234,-0.0452 -0.0398,0.35455 -0.0912,1.01991 -0.11473,1.47859 -0.0234,0.45868 -0.0615,0.9747 -0.0849,1.14671 -0.0234,0.172 -0.0424,0.32782 -0.0425,0.34625 -4.7e-4,0.0641 0.15171,0.10868 0.57266,0.16771 0.28722,0.0403 0.42973,0.0824 0.44285,0.131 0.0151,0.0557 -0.0174,0.065 -0.14604,0.0417 -0.40144,-0.0727 -0.88272,-0.1408 -0.89444,-0.12651 -0.015,0.0183 -0.17192,1.19586 -0.21054,1.57959 -0.0356,0.35331 -0.13442,0.43513 -0.355,0.29388 -0.17811,-0.11406 -0.17694,-0.10213 -0.0754,-0.76564 0.13038,-0.85155 0.15763,-1.08403 0.13537,-1.15486 -0.0266,-0.0845 -0.49423,-0.0998 -0.49423,-0.0162 0,0.11651 0.1239,0.40589 0.2472,0.57738 l 0.12984,0.18056 -0.36994,0.11315 c -0.20346,0.0622 -0.53319,0.13959 -0.73276,0.17192 -0.33516,0.0543 -0.55135,0.0978 -0.59334,0.11932 -0.01,0.005 -0.0238,-0.0453 -0.0321,-0.11128 -0.009,-0.066 -0.0437,-0.18801 -0.079,-0.27107 -0.0799,-0.18878 -0.0824,-0.39855 -0.004,-0.45329 0.0371,-0.0264 0.0517,-0.0992 0.0393,-0.19806 l -0.0194,-0.15637 -0.3916,0.0173 c -0.21537,0.01 -0.63881,-0.007 -0.94096,-0.0366 -0.45386,-0.0445 -0.55962,-0.0414 -0.60827,0.018 -0.0861,0.10511 -0.0717,0.44567 0.0264,0.62666 0.15068,0.27784 0.12729,0.30437 -0.35223,0.39968 -0.2406,0.0478 -0.52136,0.12225 -0.62389,0.16541 -0.10259,0.0432 -0.20919,0.0678 -0.237,0.0548 -0.0392,-0.0184 -0.23056,-0.43847 -0.47993,-1.05404 -0.003,-0.009 -0.1527,0.0127 -0.33082,0.0493 -0.24319,0.0499 -0.32329,0.0866 -0.3216,0.1475 0.003,0.11554 0.091,0.65958 0.29497,1.82718 0.0976,0.55901 0.19487,1.1418 0.21606,1.29508 0.0213,0.15328 0.0499,0.32245 0.0638,0.37592 0.0139,0.0535 0.004,0.14524 -0.0215,0.20392 -0.036,0.0823 -0.0722,0.0989 -0.15769,0.0727 -0.0609,-0.0187 -0.14186,-0.0367 -0.17969,-0.0401 -0.14427,-0.0127 -0.21014,-0.11819 -0.26359,-0.42207 -0.0303,-0.172 -0.0595,-0.33619 -0.0651,-0.36485 -0.006,-0.0287 -0.0408,-0.26323 -0.0782,-0.52123 -0.0988,-0.68 -0.23458,-1.55817 -0.30897,-1.9983 l -0.0646,-0.38248 -0.26304,0.033 c -0.14466,0.0181 -0.39086,0.0811 -0.54711,0.13984 -0.32398,0.12188 -0.30115,0.0683 -0.44107,1.03519 -0.10079,0.6968 -0.11484,0.72989 -0.309066,0.72893 -0.284752,-0.001 -0.288027,-0.014 -0.187017,-0.72034 0.113777,-0.79535 0.114606,-0.83266 0.01531,-0.72703 -0.178821,0.19046 -0.261374,0.20901 -0.398721,0.0896 l -0.129671,-0.11275 -0.100786,0.11565 -0.100786,0.11564 -0.08792,-0.21041 c -0.139304,-0.33346 -0.190717,-0.33192 -0.156271,0.005 0.03349,0.32699 -0.0085,0.40173 -0.155708,0.27601 -0.119976,-0.10262 -0.289388,-0.10619 -0.289388,-0.006 0,0.12798 -0.09154,0.15856 -0.554907,0.18551 l -0.448199,0.0261 -0.08537,0.19596 c -0.08399,0.19272 -0.08409,0.19876 -0.0043,0.36486 0.254803,0.53545 0.303772,0.69437 0.302411,0.98161 -0.0011,0.23709 -0.02817,0.34555 -0.14514,0.58112 -0.0791,0.15929 -0.210885,0.37912 -0.292939,0.48849 -0.196011,0.26125 -0.349284,0.67149 -0.349805,0.93622 -5e-4,0.25724 0.163947,0.86783 0.309044,1.14741 0.180905,0.34856 0.666304,0.84754 1.035129,1.0641 0.07038,0.0414 0.23371,0.15791 0.362829,0.25903 0.129129,0.1011 0.306153,0.21437 0.393384,0.25171 0.08728,0.0373 0.266009,0.14685 0.397286,0.24337 0.329457,0.24226 0.641128,0.29475 1.844331,0.31061 0.55805,0.007 1.06744,0.0313 1.132,0.0532 0.12069,0.041 0.15886,0.15914 0.064,0.19825 -0.0295,0.0122 0.006,0.0599 0.0802,0.10666 0.15138,0.096 0.18659,0.17739 0.18659,0.43158 0,0.14342 0.0166,0.17817 0.0854,0.17817 0.0585,0 0.0854,0.0348 0.0854,0.11038 0,0.0686 0.10089,0.2241 0.26678,0.41083 0.81992,0.9234 0.97401,1.08192 1.18641,1.22048 0.12808,0.0836 0.27452,0.20158 0.32541,0.26224 0.0509,0.0607 0.23337,0.17614 0.40552,0.25663 0.17214,0.0805 0.43695,0.20553 0.58845,0.27791 0.3367,0.16084 1.39248,0.39769 2.2968,0.51524 0.36951,0.048 0.78709,0.10451 0.92795,0.12549 0.45793,0.0682 1.89713,0.0527 2.43308,-0.0263 z m -2.96678,-2.244 c -0.10789,-0.14335 -0.17965,-0.2207 -1.48791,-1.60377 -0.40219,-0.42517 -0.74573,-0.80046 -0.76343,-0.83397 -0.069,-0.13052 -0.6623,-0.72832 -0.83095,-0.83723 -0.2154,-0.13909 -0.23398,-0.20909 -0.25345,-0.95472 l -0.0148,-0.56238 0.38404,-0.0624 c 0.21123,-0.0343 0.74901,-0.097 1.19507,-0.13937 0.44606,-0.0423 1.19518,-0.11334 1.66473,-0.15776 0.46954,-0.0444 1.36274,-0.11725 1.98488,-0.16179 0.62214,-0.0446 1.17466,-0.0949 1.22784,-0.1119 0.0707,-0.0226 0.0907,-0.0117 0.0744,0.0405 -0.0145,0.0468 0.0607,0.12429 0.21772,0.22432 0.13197,0.0841 0.34818,0.2562 0.48048,0.38249 0.13229,0.1263 0.35577,0.30064 0.49664,0.38742 0.14085,0.0868 0.34254,0.23202 0.44818,0.32271 0.10568,0.0907 0.40339,0.31555 0.66164,0.49967 0.25824,0.18411 0.52716,0.38674 0.59759,0.45028 0.0704,0.0635 0.27692,0.1982 0.45884,0.29923 0.20607,0.11444 0.41684,0.28308 0.55905,0.4473 0.12553,0.14497 0.25919,0.26358 0.29702,0.26358 0.0571,0 0.0673,0.0575 0.0598,0.33925 -0.006,0.24929 -0.0258,0.34562 -0.0728,0.36331 -0.35958,0.13515 -1.10851,0.33991 -1.24326,0.33991 -0.16878,0 -0.42578,0.0398 -1.16847,0.18078 -0.47256,0.0897 -0.87616,0.16276 -1.32326,0.23943 -0.18781,0.0322 -0.70644,0.13788 -1.1525,0.23483 -0.44607,0.097 -0.98391,0.21358 -1.19521,0.25918 -0.21129,0.0456 -0.51862,0.11773 -0.68295,0.1603 -0.16435,0.0426 -0.34689,0.0898 -0.40565,0.10488 -0.0793,0.0204 -0.13427,-0.009 -0.21344,-0.11413 z m 0.19451,-0.14575 c 0.0209,-0.1023 -0.0455,-0.91563 -0.0777,-0.94885 -0.006,-0.006 -0.19002,-0.15654 -0.41002,-0.33521 -0.537,-0.43606 -1.13012,-1.07021 -2.25245,-2.40818 -0.33195,-0.39574 -0.62668,-0.71953 -0.65494,-0.71953 -0.0381,0 -0.0461,0.13646 -0.0309,0.52461 l 0.0205,0.5246 0.17249,0.1139 c 0.18545,0.12246 0.22919,0.16726 0.80779,0.82716 0.47531,0.54208 0.79706,0.89647 1.27772,1.4073 0.20727,0.22028 0.53052,0.56492 0.71834,0.76586 0.18782,0.20094 0.35553,0.36669 0.37268,0.36831 0.0171,0.002 0.0425,-0.0524 0.0565,-0.11997 z m 0.83008,-0.0328 c 0.26998,-0.058 0.74058,-0.16413 1.04578,-0.23591 0.30521,-0.0718 0.81424,-0.17616 1.13118,-0.23196 0.31694,-0.0558 0.74913,-0.13669 0.96043,-0.17978 0.77397,-0.15784 1.20466,-0.23491 1.62204,-0.29025 0.58228,-0.0772 0.87721,-0.14419 1.23389,-0.28026 l 0.30279,-0.11552 0.0129,-0.21368 0.0129,-0.21369 -0.4611,-0.0356 c -0.2536,-0.0196 -0.70118,-0.0111 -0.99465,0.0188 -0.29346,0.0299 -0.77368,0.0784 -1.06714,0.10782 -0.29346,0.0294 -0.68723,0.0773 -0.87505,0.10645 -0.59644,0.0925 -1.46623,0.21015 -2.12106,0.28692 -0.54525,0.0639 -1.10412,0.16357 -1.48077,0.26403 -0.0993,0.0265 -0.1009,0.0359 -0.0707,0.40229 0.017,0.20636 0.0294,0.46492 0.0277,0.57459 -0.003,0.19024 0.002,0.19807 0.11342,0.17029 0.0641,-0.016 0.33755,-0.0765 0.60752,-0.13452 z m -0.23477,-1.19765 c 0.28172,-0.0561 0.73313,-0.12727 1.0031,-0.15808 0.26999,-0.0308 0.72139,-0.0892 1.00311,-0.12962 0.28173,-0.0405 0.61788,-0.0882 0.74701,-0.10598 0.12911,-0.0178 0.38844,-0.0543 0.57624,-0.0811 0.55084,-0.0786 1.81365,-0.20458 2.05081,-0.20458 0.26861,0 0.30292,-0.0359 0.18313,-0.1916 -0.0767,-0.0996 -0.13692,-0.12114 -0.3397,-0.12114 -0.23363,0 -0.25273,-0.01 -0.36573,-0.19089 -0.0712,-0.11406 -0.20894,-0.23933 -0.3421,-0.31123 -0.1235,-0.0667 -0.30444,-0.22686 -0.40583,-0.35926 -0.21394,-0.27932 -0.42525,-0.45131 -0.57996,-0.47205 -0.16934,-0.0227 -0.30167,-0.12858 -0.39763,-0.3182 -0.0534,-0.10565 -0.12334,-0.17422 -0.17996,-0.17666 -0.18971,-0.008 -0.25754,-0.0456 -0.40793,-0.2248 -0.2343,-0.27927 -0.3111,-0.28776 -1.75487,-0.19405 -1.14553,0.0744 -1.6473,0.13973 -1.98489,0.2586 -0.22059,0.0777 -0.48875,0.11389 -1.02445,0.13838 -0.72077,0.0329 -0.88974,0.0745 -0.97359,0.23958 -0.0339,0.0668 0.0292,0.17063 0.31723,0.52123 0.85824,1.04485 1.40766,1.64775 1.65808,1.8195 0.14595,0.10011 0.31641,0.23292 0.37882,0.29514 0.0716,0.0714 0.15281,0.10499 0.22017,0.091 0.0587,-0.0122 0.33721,-0.0681 0.61894,-0.12418 z m 6.25286,-0.91192 c -0.10525,-0.1279 -0.36779,-0.34486 -0.58322,-0.48214 -0.21546,-0.13728 -0.76289,-0.52108 -1.21654,-0.85287 -0.45367,-0.3318 -0.91128,-0.66456 -1.01692,-0.73947 -0.10568,-0.0749 -0.30733,-0.24386 -0.4482,-0.37542 -0.14087,-0.13156 -0.37568,-0.30987 -0.52183,-0.39624 l -0.26573,-0.15704 -0.8441,0.0537 c -0.46425,0.0295 -1.06499,0.066 -1.33499,0.081 -0.45984,0.0256 -0.7558,0.0551 -1.81413,0.18061 -0.23476,0.0279 -0.60933,0.0638 -0.83236,0.0798 -0.54908,0.0395 -1.28057,0.14275 -1.28057,0.18073 0,0.017 0.11283,0.16719 0.25065,0.33377 l 0.25064,0.30286 0.14416,-0.091 c 0.11413,-0.072 0.31333,-0.0993 0.95521,-0.1307 0.67431,-0.033 0.87881,-0.0625 1.21278,-0.17505 0.29127,-0.0982 0.45556,-0.12685 0.59761,-0.1043 0.11484,0.0182 0.24884,0.005 0.32394,-0.0317 0.0704,-0.0345 0.49302,-0.0848 0.93907,-0.11167 1.56636,-0.0945 1.70209,-0.0769 1.87311,0.24179 0.0543,0.10124 0.10729,0.13242 0.22479,0.13242 0.12845,0 0.18774,0.0429 0.36053,0.26061 0.15412,0.19425 0.23818,0.26062 0.33002,0.26062 0.13384,0 0.40161,0.2273 0.64389,0.54659 0.0801,0.1055 0.24543,0.24575 0.36751,0.31168 0.13374,0.0722 0.27014,0.19698 0.34315,0.31386 0.11177,0.17886 0.13431,0.19186 0.28929,0.16647 0.21718,-0.0356 0.35826,0.0329 0.52456,0.25461 0.1279,0.17052 0.14806,0.17897 0.42673,0.17897 h 0.29247 z m -12.71972,-3.9562 c 0,-0.0677 -0.0873,-0.62479 -0.19386,-1.23792 -0.10658,-0.61313 -0.24994,-1.53699 -0.3185,-2.053 -0.0686,-0.51602 -0.15607,-1.12585 -0.19444,-1.3552 -0.0385,-0.22934 -0.0942,-0.61635 -0.12398,-0.86003 -0.0652,-0.53293 -0.10847,-0.79387 -0.32854,-1.98067 -0.22208,-1.19779 -0.21349,-1.13537 -0.1617,-1.17444 0.0249,-0.0188 0.33285,-0.031 0.68437,-0.0271 l 0.63915,0.007 -0.0285,-0.14548 c -0.0156,-0.08 -0.0366,-0.16307 -0.0465,-0.18457 -0.01,-0.0215 -0.37874,-0.0391 -0.81971,-0.0391 h -0.80175 l -0.0547,0.22153 c -0.0301,0.12183 -0.0797,0.44434 -0.11024,0.71668 -0.0902,0.803 -0.22919,1.88463 -0.27464,2.13705 -0.0383,0.21292 -0.14419,0.94613 -0.31984,2.21523 -0.03572,0.25801 -0.09313,0.62545 -0.127637,0.81653 -0.03455,0.19108 -0.08899,0.55002 -0.121114,0.79764 -0.05571,0.4294 -0.05454,0.45269 0.02328,0.50359 0.172389,0.11266 0.17342,0.10968 0.396861,-1.15349 0.0381,-0.21501 0.10671,-0.60202 0.15272,-0.86003 0.046,-0.25801 0.12004,-0.71539 0.16461,-1.0164 0.0446,-0.30101 0.11967,-0.80687 0.16686,-1.12413 0.0472,-0.31727 0.0906,-0.77389 0.0964,-1.01472 0.007,-0.29573 0.0312,-0.46716 0.0739,-0.52809 0.0923,-0.13161 0.13307,-0.0694 0.13595,0.20721 0.002,0.27299 0.0151,0.36462 0.20618,1.54758 0.17984,1.11299 0.41424,2.58426 0.51902,3.25769 0.17597,1.13087 0.35127,2.16695 0.38521,2.27666 0.0317,0.10258 0.0859,0.12992 0.32768,0.16531 0.0294,0.004 0.0533,-0.0474 0.0533,-0.11533 z m 11.74981,-0.33165 c 0.30137,-0.24498 0.58191,-0.53927 0.93162,-0.97731 0.98876,-1.23841 1.4753,-2.09342 2.18357,-3.83708 0.39101,-0.96263 0.53891,-1.275 0.69551,-1.46896 0.22542,-0.27919 0.38036,-0.31922 0.49334,-0.12743 0.0612,0.10381 0.0627,0.21249 0.0151,1.06298 -0.0574,1.02577 -0.0906,1.31594 -0.28191,2.46671 -0.17011,1.02293 -0.24779,1.56256 -0.24873,1.72809 l -7.2e-4,0.13833 0.20276,-0.0927 c 0.11153,-0.051 0.35885,-0.13522 0.54965,-0.18715 l 0.34692,-0.0944 0.0265,-0.31066 c 0.0147,-0.17086 0.0266,-0.53993 0.0266,-0.82014 0,-0.28022 0.0284,-0.93939 0.0631,-1.46483 0.0832,-1.25726 0.0788,-3.89869 -0.007,-4.159 -0.12735,-0.38651 -0.35688,-0.50421 -0.65895,-0.33788 -0.23836,0.13125 -0.60173,0.63052 -0.76447,1.05041 -0.26379,0.68055 -0.34023,0.89515 -0.34023,0.95514 0,0.0333 -0.0357,0.1227 -0.0793,0.1988 -0.0436,0.0761 -0.11461,0.23218 -0.15762,0.34685 -0.12896,0.34362 -0.72169,1.53939 -0.9434,1.90318 -0.11378,0.18673 -0.37977,0.65548 -0.59107,1.04167 -0.55839,1.02061 -1.45002,2.12015 -1.95685,2.41317 l -0.23057,0.13331 0.0544,0.25141 c 0.0805,0.37194 0.14022,0.53808 0.19318,0.53808 0.0259,0 0.24127,-0.15774 0.47844,-0.35054 z m -0.73695,-0.016 c 0,-0.0583 -0.0292,-0.19142 -0.0649,-0.29591 -0.0688,-0.20102 -0.0483,-0.26518 0.096,-0.29908 0.25764,-0.0606 0.7051,-0.47154 1.23334,-1.13267 0.36612,-0.45826 0.56667,-0.77063 1.01851,-1.58646 0.0936,-0.16872 0.27767,-0.48267 0.40939,-0.69768 0.40784,-0.66573 1.01009,-1.95573 1.22888,-2.63222 0.0464,-0.14333 0.14151,-0.41307 0.21147,-0.59941 0.0699,-0.18634 0.1291,-0.36166 0.13148,-0.38961 0.002,-0.028 -0.0676,-0.0528 -0.15566,-0.0552 -0.0879,-0.002 -0.35032,-0.0558 -0.58296,-0.11859 -0.23264,-0.0628 -0.53358,-0.11422 -0.66875,-0.11422 -0.15797,0 -0.25256,-0.0233 -0.26481,-0.0652 -0.0106,-0.0358 -0.0285,-0.0534 -0.0402,-0.0391 -0.0744,0.0919 -0.50294,1.119 -0.56538,1.3552 -0.0417,0.15767 -0.12953,0.40395 -0.19524,0.54729 -0.0657,0.14333 -0.22518,0.51407 -0.35443,0.82386 -0.12923,0.30978 -0.289,0.64973 -0.35503,0.75543 -0.066,0.1057 -0.22397,0.37999 -0.35097,0.60952 -0.127,0.22953 -0.31934,0.55564 -0.42742,0.72469 -0.10813,0.16905 -0.29102,0.46224 -0.40651,0.65154 -0.372,0.60977 -0.7854,1.1893 -1.07019,1.50028 -0.15279,0.16684 -0.27781,0.32177 -0.27782,0.34429 -1e-5,0.0225 0.0874,0.0867 0.19412,0.14256 0.10681,0.0559 0.27516,0.16969 0.37419,0.25289 0.22011,0.18492 0.65636,0.41858 0.78693,0.42149 0.0686,0.002 0.0961,-0.028 0.0961,-0.10377 z m -2.77455,-0.37308 c 0,-0.2688 -0.17965,-1.17949 -0.57899,-2.93506 -0.20017,-0.87998 -0.2234,-0.99065 -0.31719,-1.51157 -0.0517,-0.28667 -0.16788,-0.88478 -0.25836,-1.32914 -0.0905,-0.44434 -0.18442,-0.94863 -0.20875,-1.12064 -0.0243,-0.17201 -0.0956,-0.57661 -0.15843,-0.89912 l -0.11413,-0.58639 h -0.78277 -0.78276 v 0.24153 0.24152 l 0.43754,-0.0374 c 0.80597,-0.0689 0.82258,-0.0679 0.81463,0.0495 -0.0181,0.2666 -0.18297,1.86422 -0.22091,2.14015 -0.0235,0.1703 -0.0543,0.50925 -0.0688,0.75324 -0.0144,0.24397 -0.0624,0.72481 -0.10659,1.06852 l -0.0804,0.62492 0.0925,0.0901 0.0924,0.0901 -0.0897,0.001 c -0.077,10e-4 -0.0972,0.0511 -0.14182,0.35299 -0.18886,1.27613 -0.19056,1.44301 -0.0152,1.49675 0.0591,0.0181 0.11189,0.0259 0.11719,0.0174 0.006,-0.009 0.0311,-0.19148 0.0569,-0.4065 0.0259,-0.21501 0.078,-0.59028 0.11578,-0.83396 0.0378,-0.24367 0.0867,-0.56032 0.10883,-0.70367 0.0439,-0.28476 0.0894,-0.81873 0.18903,-2.21522 0.0901,-1.26425 0.16025,-1.88088 0.21134,-1.86008 0.0237,0.01 0.0651,0.14476 0.0921,0.30029 0.0658,0.37955 0.12072,0.64225 0.35866,1.71616 0.1112,0.50168 0.22545,1.05289 0.25399,1.22489 0.0285,0.17201 0.0693,0.41022 0.0907,0.52937 0.0214,0.11916 0.0574,0.36543 0.0802,0.5473 0.0406,0.32445 0.24872,1.5699 0.42508,2.54343 0.049,0.27101 0.0892,0.49969 0.0892,0.5082 0,0.009 0.0672,0.0155 0.1494,0.0155 0.12526,0 0.1494,-0.0185 0.1494,-0.11414 z m 1.16493,-0.31278 c -0.007,-0.15533 0.009,-0.1935 0.0854,-0.2178 0.23403,-0.0731 0.81754,-0.85611 1.63459,-2.19336 0.34785,-0.56934 0.52568,-0.87875 0.93016,-1.61844 0.1219,-0.22293 0.48306,-1.03469 0.75837,-1.70451 0.0436,-0.10612 0.0794,-0.23513 0.0796,-0.28668 1.2e-4,-0.0516 0.0266,-0.15237 0.0587,-0.22404 0.0322,-0.0717 0.12053,-0.27104 0.19639,-0.44304 0.27528,-0.62419 0.39182,-0.86003 0.42495,-0.86003 0.0186,0 0.0826,0.0469 0.14233,0.10425 0.0763,0.0733 0.17317,0.10424 0.32589,0.10424 h 0.21737 v -0.21108 c 0,-0.25 -0.0728,-0.43738 -0.25016,-0.64316 -0.11142,-0.12933 -0.15249,-0.14608 -0.29094,-0.11864 -0.19094,0.0378 -0.34538,0.16803 -0.44797,0.37766 -0.30105,0.61507 -0.56682,1.25575 -1.41451,3.40986 -0.53621,1.36265 -1.80746,3.31512 -2.5266,3.88053 -0.30639,0.2409 -0.33769,0.29865 -0.24453,0.45134 0.0419,0.0686 0.10313,0.19002 0.13633,0.26991 0.0867,0.20903 0.19604,0.16346 0.18467,-0.077 z m 4.44173,-1.23901 c 0.25623,-0.0655 0.28983,-0.1363 0.27528,-0.57968 l -0.0128,-0.38661 -0.11507,0.21608 c -0.0634,0.11884 -0.20258,0.3472 -0.30946,0.50746 -0.10695,0.16026 -0.19437,0.30618 -0.19437,0.32427 0,0.0181 0.0433,0.0166 0.0961,-0.003 0.0528,-0.0199 0.16995,-0.0551 0.26029,-0.0782 z m -12.48971,-0.63324 c 0.26411,-0.0677 0.48021,-0.14192 0.48021,-0.16498 0,-0.0231 -0.0384,-0.13387 -0.0854,-0.24625 -0.0469,-0.11239 -0.0854,-0.24046 -0.0854,-0.2846 0,-0.0441 -0.024,-0.0832 -0.0534,-0.0869 -0.15191,-0.0188 -1.11965,0.0223 -1.20845,0.0513 l -0.10302,0.0337 0.1528,0.36476 c 0.19307,0.46085 0.22653,0.50884 0.33447,0.47972 0.0484,-0.013 0.30406,-0.0791 0.56816,-0.14677 z m 3.20399,-0.0189 c 0.36577,-0.0338 0.8194,-0.17655 0.81848,-0.25758 -3.5e-4,-0.0311 -0.0632,-0.1468 -0.13952,-0.25704 l -0.13888,-0.20044 -0.51144,0.0632 c -0.28129,0.0348 -0.57218,0.0936 -0.64645,0.13074 -0.13249,0.0663 -0.13427,0.0717 -0.0942,0.28905 0.0558,0.3031 0.0636,0.3123 0.24254,0.28496 0.0866,-0.0132 0.29792,-0.037 0.46954,-0.0529 z m 11.12312,-0.2142 c 0.0651,-0.2071 0.0289,-0.32022 -0.11284,-0.35254 -0.0763,-0.0174 -0.32875,-0.0785 -0.56098,-0.13568 -0.39729,-0.0979 -0.42942,-0.0989 -0.54291,-0.017 -0.16924,0.12207 -0.18661,0.2154 -0.0472,0.25306 0.16091,0.0434 0.54796,0.17102 0.77749,0.25627 0.26601,0.0988 0.45449,0.0972 0.48632,-0.004 z m -17.55619,-0.20608 c 0.10227,-0.044 0.31954,-0.10321 0.48301,-0.13152 0.16346,-0.0283 0.30489,-0.0609 0.31428,-0.0723 0.0232,-0.0283 -0.1789,-1.47418 -0.3137,-2.24407 -0.0603,-0.34402 -0.12036,-0.71344 -0.13361,-0.82094 -0.0358,-0.29069 -0.0982,-0.23638 -0.0982,0.0855 0,0.15452 -0.039,0.5122 -0.0868,0.79488 -0.0477,0.28266 -0.11472,0.7133 -0.14894,0.95698 -0.0342,0.24367 -0.0905,0.61896 -0.12502,0.83397 -0.10014,0.62285 -0.10752,0.67759 -0.0918,0.67759 0.009,0 0.0986,-0.036 0.20073,-0.0801 z m 6.46917,-0.31908 c 0.4396,-0.0716 0.52833,-0.10063 0.51748,-0.16941 -0.0118,-0.0721 -0.091,-0.0808 -0.60931,-0.0666 -0.32793,0.009 -0.60231,0.0239 -0.60976,0.0329 -0.0381,0.0466 0.0514,0.28944 0.10683,0.28944 0.0354,0 0.30297,-0.0389 0.59481,-0.0864 z m 11.19605,-0.10906 c 0.0245,-0.10751 0.0446,-0.26861 0.0446,-0.358 2.5e-4,-0.15372 -0.0131,-0.16695 -0.2452,-0.24415 -0.23402,-0.0778 -0.4749,-0.11163 -0.6821,-0.0958 -0.0671,0.005 -0.13304,0.0879 -0.2237,0.28093 -0.0706,0.1505 -0.1287,0.29959 -0.12891,0.33131 -2.6e-4,0.0332 0.12174,0.0719 0.28771,0.0912 0.15847,0.0184 0.38417,0.0658 0.50156,0.10526 0.35691,0.11996 0.39566,0.11033 0.44595,-0.11078 z m -15.44303,-0.10484 c 0.0251,-0.0307 4.7e-4,-0.54472 -0.066,-1.37294 -0.0585,-0.72811 -0.1166,-1.65221 -0.12929,-2.05356 -0.0127,-0.40134 -0.0356,-0.84114 -0.0511,-0.97731 l -0.0281,-0.24758 -0.19696,-0.003 c -0.10835,-0.002 -0.29299,-0.006 -0.41038,-0.009 -0.53507,-0.014 -0.70431,0.009 -0.70431,0.0962 0,0.0464 0.066,0.42791 0.14685,0.84771 0.0808,0.41981 0.16668,0.9037 0.19093,1.07531 0.0243,0.17162 0.0816,0.58177 0.12738,0.91145 0.0723,0.52028 0.22003,1.46659 0.28154,1.80322 0.0196,0.10709 0.0275,0.10795 0.40965,0.0438 0.21434,-0.036 0.4078,-0.0875 0.4299,-0.11453 z m 0.88055,0.0878 c 0.35228,-0.006 0.43582,-0.0222 0.43582,-0.0841 0,-0.0646 -0.0688,-0.0715 -0.43754,-0.0436 -0.52171,0.0394 -0.62961,0.0631 -0.62961,0.13837 0,0.0332 0.0407,0.0443 0.0977,0.0268 0.0538,-0.0165 0.29387,-0.0333 0.53358,-0.0374 z m 0.30317,-0.23712 0.14481,-0.0271 -0.0285,-0.47838 c -0.0157,-0.2631 -0.0468,-0.5722 -0.0691,-0.68688 -0.0223,-0.11466 -0.041,-0.32731 -0.0416,-0.47256 -6.1e-4,-0.14524 -0.0189,-0.39151 -0.0407,-0.54728 -0.0218,-0.15577 -0.0517,-0.57642 -0.0662,-0.93477 -0.037,-0.90977 -0.0811,-1.2932 -0.15966,-1.38906 -0.0593,-0.0724 -0.12563,-0.0754 -0.54916,-0.0247 -0.29148,0.0349 -0.49591,0.0836 -0.51766,0.12327 -0.0198,0.0361 -0.026,0.1594 -0.014,0.27408 0.012,0.11467 0.0327,0.53686 0.0461,0.93821 0.0133,0.40136 0.0713,1.29723 0.12871,1.99085 0.0574,0.6936 0.10451,1.27391 0.10451,1.28954 0,0.0312 0.83089,-0.012 1.06256,-0.0553 z m 2.00454,0.0512 0.26238,-0.0335 -8.4e-4,-0.39653 c -9.8e-4,-0.4472 -0.10206,-2.07061 -0.1659,-2.66388 -0.0231,-0.21501 -0.0547,-0.60804 -0.0703,-0.87342 -0.0155,-0.26537 -0.0422,-0.49308 -0.0594,-0.50602 -0.0171,-0.0129 -0.2792,-0.0369 -0.58237,-0.0532 -0.30316,-0.0163 -0.74892,-0.0467 -0.99057,-0.0675 -0.43749,-0.0376 -0.43946,-0.0373 -0.46465,0.0853 -0.0139,0.0677 -0.0129,0.31403 0.002,0.54744 0.11755,1.79661 0.14094,2.1083 0.24609,3.27812 0.0499,0.55487 0.0632,0.61309 0.14182,0.6193 1.20875,0.0955 1.38197,0.1021 1.68124,0.0639 z m 1.52905,-0.10172 c 0.0125,-0.0397 -0.0106,-0.57086 -0.0512,-1.18035 -0.0407,-0.6095 -0.0859,-1.58901 -0.10046,-2.17669 l -0.0264,-1.06852 h -0.55251 c -0.74746,0 -0.72139,-0.0317 -0.66365,0.80791 0.0247,0.35834 0.0622,0.79227 0.0835,0.96428 0.0213,0.172 0.0628,0.85506 0.0925,1.5179 l 0.0538,1.20518 0.57103,0.001 c 0.44781,10e-4 0.57594,-0.0143 0.59371,-0.071 z m 0.75333,-0.5033 c 0.0389,-0.32251 0.0904,-0.84732 0.11413,-1.16624 0.0238,-0.31892 0.0731,-0.83494 0.10929,-1.14671 0.0362,-0.31176 0.0798,-0.80789 0.0966,-1.1025 l 0.0307,-0.53566 -0.5772,0.0144 -0.57721,0.0144 -0.0128,0.75578 c -0.007,0.41567 0.0165,1.21316 0.0522,1.77218 0.0357,0.55902 0.0775,1.23336 0.0929,1.49854 l 0.028,0.48213 h 0.28615 0.28614 z m 10.06,0.0694 c 0,-0.0263 0.0118,-0.0851 0.026,-0.13059 0.0373,-0.11853 -0.1935,-0.22267 -0.56728,-0.25601 -0.29192,-0.0261 -0.30987,-0.0211 -0.37692,0.10383 -0.0387,0.0722 -0.0612,0.14241 -0.05,0.15614 0.0235,0.0287 0.67511,0.15693 0.85076,0.16746 0.0646,0.004 0.11744,-0.0145 0.11744,-0.0408 z m 0.0585,-0.53853 c 0.0141,-0.0645 0.026,-0.27559 0.0263,-0.4691 6e-4,-0.39638 0.0118,-0.38743 -0.39758,-0.31892 -0.1932,0.0323 -0.19892,0.0389 -0.32728,0.37383 -0.0827,0.21584 -0.11579,0.35913 -0.09,0.39055 0.0224,0.0273 0.15254,0.0671 0.28932,0.0885 0.43647,0.0681 0.47105,0.0636 0.49923,-0.0648 z m 4.20696,-0.81984 c 0.0867,-0.0304 0.22799,-0.15975 0.34931,-0.32006 0.19663,-0.25979 0.20922,-0.2676 0.36625,-0.22745 0.38375,0.0981 0.6144,0.0136 0.74242,-0.27215 0.0421,-0.0939 0.0387,-0.13886 -0.0187,-0.24575 -0.17056,-0.31786 -0.0237,-0.53082 0.45469,-0.65916 0.36141,-0.097 0.57526,-0.38983 0.53511,-0.73278 -0.01,-0.0823 -0.14201,-0.23898 -0.4119,-0.48744 -0.21873,-0.20136 -0.42767,-0.42657 -0.4643,-0.50045 -0.0631,-0.12747 -0.0608,-0.14137 0.0455,-0.27129 0.21819,-0.2664 0.13432,-0.39029 -0.44671,-0.65996 -0.27098,-0.12575 -0.53776,-0.1371 -0.74443,-0.0316 -0.19066,0.0973 -0.18996,0.15417 10e-4,0.11034 0.084,-0.0192 0.1494,-0.0129 0.1494,0.0143 0,0.0267 -0.0876,0.0646 -0.19471,0.0842 -0.18529,0.0339 -0.20385,0.0254 -0.38322,-0.17651 -0.26602,-0.29943 -0.39206,-0.29018 -0.68696,0.0504 -0.2265,0.26157 -0.22816,0.26241 -0.44455,0.22737 -0.18727,-0.0303 -0.23593,-0.0184 -0.35303,0.0868 -0.0747,0.0671 -0.17406,0.18175 -0.22079,0.25477 -0.17093,0.26711 -0.27279,0.36641 -0.3424,0.33381 -0.0894,-0.0419 -0.25834,0.0692 -0.34175,0.22467 -0.0591,0.11001 -0.0585,0.13804 0.006,0.28956 0.039,0.0923 0.17503,0.28976 0.30211,0.43886 l 0.23107,0.2711 -0.15342,0.24542 c -0.25842,0.4134 -0.34053,0.77351 -0.23257,1.01987 0.025,0.057 0.14505,0.18438 0.2668,0.28314 0.12176,0.0988 0.26581,0.21864 0.32013,0.26641 0.062,0.0546 0.17702,0.0856 0.30947,0.0835 0.15346,-0.002 0.21071,0.0165 0.21071,0.0696 0,0.0511 0.0544,0.073 0.18143,0.0732 0.0997,1.1e-4 0.27745,0.0448 0.39484,0.0993 0.24908,0.11563 0.37276,0.12814 0.57313,0.058 z m -4.25476,-0.095 c 0.0928,-0.008 0.11743,-0.0363 0.11743,-0.13427 0,-0.17842 -0.0905,-0.24488 -0.3015,-0.22166 -0.14003,0.0154 -0.20824,0.056 -0.28068,0.1669 -0.0526,0.0806 -0.089,0.15965 -0.081,0.17565 0.0141,0.028 0.30053,0.035 0.54575,0.0134 z m 0.0986,-0.51645 c -0.0131,-0.0417 -0.0238,-0.10904 -0.0238,-0.1497 0,-0.11042 -0.13056,-0.0892 -0.2427,0.0394 -0.14127,0.16207 -0.12414,0.19622 0.0957,0.19083 0.1517,-0.004 0.18931,-0.0215 0.17075,-0.0805 z m -12.48799,-2.42017 v -0.26808 l -0.71498,0.0351 c -0.39324,0.0193 -0.85425,0.0494 -1.02446,0.0668 -0.29074,0.0297 -0.30947,0.0392 -0.30947,0.15641 0,0.0686 0.024,0.13373 0.0534,0.14471 0.12368,0.0462 0.94673,0.11702 1.45131,0.12478 l 0.54424,0.008 z m 1.01819,0.23461 c 0.24752,-0.0316 0.26234,-0.0412 0.26172,-0.1694 -3.6e-4,-0.0748 -0.0148,-0.16003 -0.0321,-0.1895 -0.0172,-0.0295 -0.22576,-0.0594 -0.46334,-0.0664 l -0.43199,-0.0128 -0.0269,0.16414 c -0.0492,0.29984 -0.0441,0.30748 0.20162,0.30748 0.12568,0 0.34657,-0.0151 0.49089,-0.0335 z m -3.31655,-0.10239 c 0.0154,-0.0113 0.0185,-0.0652 0.007,-0.11964 -0.0184,-0.0857 -0.0711,-0.10165 -0.39083,-0.11843 -0.54833,-0.0288 -0.59252,-0.0152 -0.56959,0.17571 l 0.019,0.15764 0.45332,-0.0373 c 0.24934,-0.0205 0.46595,-0.0466 0.48135,-0.0579 z m 8.52507,-0.61778 c -0.0106,-0.0132 -0.16284,-0.0384 -0.33792,-0.0561 -0.4093,-0.0414 -0.60029,-0.17507 -1.03501,-0.72455 -0.68869,-0.87051 -0.82282,-1.72092 -0.43453,-2.75508 0.13325,-0.35488 0.51058,-0.87243 0.77295,-1.06019 0.23354,-0.16712 0.65001,-0.32366 0.95452,-0.35876 0.12913,-0.0149 0.29239,-0.038 0.36283,-0.0513 0.0704,-0.0133 0.15687,-0.002 0.19209,0.0262 0.0353,0.0278 0.0529,0.0508 0.0396,0.0513 -0.1465,0.005 -0.96046,0.17358 -1.11289,0.23083 -0.29497,0.11077 -0.41464,0.1994 -0.70704,0.52359 -0.18007,0.19964 -0.30653,0.39766 -0.39412,0.61716 -0.40634,1.01823 -0.29241,1.77246 0.40555,2.68446 0.42891,0.56046 0.61561,0.67023 1.21414,0.7139 0.51589,0.0376 0.81544,-0.0186 1.1456,-0.21519 0.28141,-0.16755 0.7531,-0.69805 0.8593,-0.96647 l 0.0791,-0.19983 -0.10302,-0.0316 c -0.15948,-0.0489 -0.31621,-0.31049 -0.31621,-0.52782 0,-0.33247 0.20203,-0.65535 0.47631,-0.7612 0.0598,-0.0231 0.0646,-0.0608 0.0306,-0.24526 -0.0521,-0.28297 -0.20673,-0.54696 -0.64275,-1.09719 -0.41029,-0.51775 -0.53713,-0.62931 -0.72879,-0.64108 -0.0762,-0.005 -0.12899,-0.0312 -0.1172,-0.0591 0.039,-0.0925 0.3554,-0.0239 0.4966,0.10764 0.27591,0.25697 0.89385,1.07443 1.00806,1.33354 0.0646,0.14647 0.11744,0.33727 0.11744,0.42402 0,0.16867 0.0974,0.2951 0.22939,0.29784 0.044,8.8e-4 0.22891,0.0838 0.41089,0.18409 0.35383,0.19508 0.50136,0.22552 0.53738,0.11091 0.0358,-0.11422 0.38514,-0.39759 0.49003,-0.39759 0.0526,0 0.15866,0.0587 0.23561,0.13031 0.19936,0.18568 0.39731,0.17144 0.72469,-0.0521 0.15663,-0.10695 0.3261,-0.18241 0.40962,-0.18239 0.21279,6e-5 0.66436,0.2794 0.75155,0.4649 0.0871,0.18519 0.21487,0.26479 0.42524,0.26479 0.31904,0 0.63951,0.15456 0.82216,0.3965 0.19572,0.25928 0.22344,0.46768 0.0829,0.62299 -0.0693,0.0766 -0.16291,0.0993 -0.43753,0.10597 -0.35105,0.009 -0.39363,-0.004 -1.12766,-0.32778 -0.25235,-0.11137 -0.32469,-0.0666 -0.29065,0.17974 0.018,0.13011 0.007,0.22827 -0.0322,0.29396 -0.0562,0.0937 -0.0904,0.0958 -0.69164,0.0405 -0.57084,-0.0525 -0.64823,-0.0714 -0.7936,-0.19446 -0.15555,-0.13163 -0.33761,-0.14162 -0.33761,-0.0185 0,0.11117 -0.28091,0.25594 -0.49699,0.25613 -0.15575,1.4e-4 -0.22668,0.0229 -0.24414,0.0785 -0.0135,0.043 -0.0903,0.11651 -0.17056,0.16326 -0.19132,0.11141 -0.41512,0.0603 -0.59487,-0.13579 -0.13198,-0.14401 -0.13478,-0.15547 -0.0791,-0.32298 0.0872,-0.26248 0.10706,-0.40823 0.0557,-0.40823 -0.0253,0 -0.0667,0.0932 -0.0917,0.20705 -0.0356,0.1617 -0.12058,0.28768 -0.38774,0.57514 -0.18815,0.20245 -0.44206,0.42334 -0.56426,0.49086 -0.24354,0.13458 -1,0.28774 -1.05991,0.21459 z m 2.81243,-0.86812 c 0.12176,-0.12967 0.16252,-0.14435 0.32513,-0.11714 0.17017,0.0285 0.2004,0.0151 0.35685,-0.15744 0.19568,-0.21588 0.33221,-0.23815 0.49589,-0.0809 0.0617,0.0592 0.13089,0.0934 0.1539,0.0761 0.023,-0.0174 0.0953,0.002 0.16049,0.0428 0.0688,0.0431 0.249,0.0757 0.42841,0.0775 0.17038,0.002 0.32687,0.016 0.34777,0.0318 0.0208,0.0158 0.0994,0.0137 0.17438,-0.005 0.11972,-0.0292 0.13367,-0.0499 0.11414,-0.16916 -0.0562,-0.34272 -0.0569,-0.34055 0.10776,-0.39103 0.16369,-0.0502 0.51409,0.0573 0.8377,0.25698 0.2003,0.12361 0.90174,0.11482 0.9791,-0.0123 0.0721,-0.11839 0.0675,-0.16897 -0.0332,-0.37057 -0.1045,-0.20921 -0.30451,-0.31899 -0.70321,-0.38589 -0.4778,-0.0802 -0.48505,-0.0839 -0.60042,-0.30705 -0.21652,-0.41883 -0.7448,-0.53749 -1.09307,-0.24553 -0.0993,0.0833 -0.24682,0.14436 -0.40238,0.16668 -0.2352,0.0338 -0.25056,0.0286 -0.3637,-0.12265 -0.065,-0.0869 -0.15434,-0.15791 -0.19861,-0.15791 -0.0442,0 -0.19638,0.12805 -0.33801,0.28457 l -0.25754,0.28456 -0.29488,-0.17256 c -0.44671,-0.26141 -0.93294,-0.42543 -1.05683,-0.35649 -0.10015,0.0557 -0.28206,0.44026 -0.28206,0.59608 0,0.13931 0.14767,0.31378 0.34502,0.40763 0.24105,0.11462 0.30052,0.28126 0.19594,0.54905 -0.0856,0.21914 -0.0742,0.25181 0.1341,0.38556 0.18316,0.1176 0.27552,0.0963 0.46725,-0.10793 z m -10.99317,-0.64854 c -0.0796,-0.068 -0.0949,-0.13009 -0.0949,-0.38455 0,-0.16688 0.0291,-0.38837 0.0646,-0.49221 0.0355,-0.10384 0.0488,-0.1888 0.0294,-0.1888 -0.0194,0 -0.14674,0.0821 -0.2832,0.18244 -0.28557,0.20998 -0.32153,0.21687 -0.45309,0.0868 -0.0844,-0.0835 -0.091,-0.11573 -0.0518,-0.25312 0.0781,-0.27405 0.0216,-0.30904 -0.35978,-0.22228 -0.39948,0.0909 -0.97921,0.0937 -1.11255,0.005 -0.0528,-0.035 -0.1266,-0.12049 -0.16393,-0.19006 -0.0572,-0.10667 -0.0597,-0.15743 -0.0161,-0.32393 0.14479,-0.55199 0.62337,-0.79521 1.56682,-0.79624 0.44682,-4.5e-4 0.60852,0.0195 0.77236,0.0955 0.238,0.11042 0.53712,0.35056 0.72991,0.58597 0.14338,0.17508 0.19745,0.17963 0.64315,0.0541 0.10567,-0.0297 0.34002,-0.0551 0.52084,-0.0564 0.32322,-0.002 0.3313,8.9e-4 0.48021,0.18816 0.0834,0.10473 0.15145,0.23447 0.15145,0.28831 0,0.13673 0.0836,0.16177 0.34793,0.10415 0.12917,-0.0282 0.32102,-0.0314 0.44176,-0.007 0.11743,0.0232 0.29987,0.0575 0.40551,0.0762 0.34214,0.0603 0.85844,0.29916 0.92836,0.42947 0.0588,0.10969 0.0574,0.13038 -0.0157,0.2306 -0.0952,0.13051 -0.34401,0.26862 -0.40331,0.22389 -0.023,-0.0173 -0.14217,0.0112 -0.2649,0.0635 -0.19028,0.081 -0.34483,0.0935 -1.04982,0.0844 -0.72416,-0.009 -0.97095,-0.0356 -1.40742,-0.14997 -0.0908,-0.0238 -0.0974,-0.0125 -0.0728,0.12405 0.0455,0.25286 -0.0493,0.29893 -0.39936,0.19417 -0.29126,-0.0872 -0.29702,-0.0869 -0.38474,0.0203 -0.10883,0.13294 -0.40836,0.148 -0.54912,0.0276 z m 0.46004,-0.15033 c 0,-0.12716 0.0665,-0.13679 0.38321,-0.0555 0.16794,0.0431 0.32328,0.0784 0.34523,0.0784 0.0753,0 0.0399,-0.13827 -0.0669,-0.26062 -0.1325,-0.152 -0.13678,-0.22934 -0.0106,-0.19287 0.73537,0.21261 0.96231,0.24499 1.71686,0.24499 0.60923,0 0.82112,-0.0183 0.96697,-0.0835 0.1027,-0.0459 0.24745,-0.0819 0.32159,-0.08 0.14602,0.004 0.37363,-0.17669 0.33042,-0.26205 -0.0445,-0.0881 -0.40553,-0.2564 -0.7427,-0.34637 -0.3277,-0.0874 -1.00128,-0.11002 -1.19868,-0.0402 -0.1011,0.0357 -0.11625,0.0196 -0.18294,-0.19358 -0.04,-0.12792 -0.11024,-0.27405 -0.15616,-0.32473 -0.12928,-0.14288 -0.4455,-0.15217 -0.97433,-0.0286 -0.47658,0.11133 -0.56124,0.10898 -0.56124,-0.0156 0,-0.11643 -0.22685,-0.33137 -0.58302,-0.5524 l -0.34825,-0.2161 -0.66636,0.0205 c -0.6595,0.0203 -0.66929,0.0224 -0.95289,0.19865 -0.22317,0.13873 -0.30797,0.22554 -0.38337,0.39244 l -0.0967,0.21429 0.0862,0.13385 c 0.14088,0.21871 0.46948,0.2817 0.91361,0.17514 0.64828,-0.15553 0.76678,-0.11866 0.74384,0.23147 -0.0197,0.30012 0.0487,0.31365 0.3814,0.0755 0.40148,-0.28733 0.4779,-0.24141 0.33932,0.20394 -0.0563,0.18117 -0.0734,0.32503 -0.0549,0.46592 0.0368,0.28118 0.0465,0.29194 0.26087,0.29194 0.13659,0 0.18957,-0.021 0.18957,-0.0751 z"
       id="path4520"
       inkscape:connector-curvature="0" />
  </g>
</svg>
