<?xml version="1.0" encoding="UTF-8" standalone="no"?>
<!-- Created with Inkscape (http://www.inkscape.org/) -->

<svg
   xmlns:dc="http://purl.org/dc/elements/1.1/"
   xmlns:cc="http://creativecommons.org/ns#"
   xmlns:rdf="http://www.w3.org/1999/02/22-rdf-syntax-ns#"
   xmlns:svg="http://www.w3.org/2000/svg"
   xmlns="http://www.w3.org/2000/svg"
   xmlns:xlink="http://www.w3.org/1999/xlink"
   xmlns:sodipodi="http://sodipodi.sourceforge.net/DTD/sodipodi-0.dtd"
   xmlns:inkscape="http://www.inkscape.org/namespaces/inkscape"
   width="55.369492mm"
   height="47.90765mm"
   viewBox="0 0 55.369492 47.90765"
   version="1.1"
   id="svg8"
   inkscape:version="0.92.1 r15371"
   sodipodi:docname="icon3.svg">
  <defs
     id="defs2">
    <linearGradient
       id="linearGradient4593"
       inkscape:collect="always">
      <stop
         id="stop4589"
         offset="0"
         style="stop-color:#f2e000;stop-opacity:1" />
      <stop
         id="stop4591"
         offset="1"
         style="stop-color:#ffa900;stop-opacity:0.93725491" />
    </linearGradient>
    <linearGradient
       inkscape:collect="always"
       id="linearGradient4534">
      <stop
         style="stop-color:#f7d236;stop-opacity:1;"
         offset="0"
         id="stop4530" />
      <stop
         style="stop-color:#fffd00;stop-opacity:0.93896711"
         offset="1"
         id="stop4532" />
    </linearGradient>
    <linearGradient
       inkscape:collect="always"
       xlink:href="#linearGradient4534"
       id="linearGradient4536"
       x1="116.60766"
       y1="119.0677"
       x2="144.38489"
       y2="119.0677"
       gradientUnits="userSpaceOnUse" />
    <radialGradient
       inkscape:collect="always"
       xlink:href="#linearGradient4593"
       id="radialGradient4595"
       gradientUnits="userSpaceOnUse"
       gradientTransform="matrix(1.0820916,-1.3052564,1.0569598,0.87624724,-165.68607,126.99357)"
       cx="83.09919"
       cy="150.30309"
       fx="83.09919"
       fy="150.30309"
       r="8.1393687" />
  </defs>
  <sodipodi:namedview
     id="base"
     pagecolor="#ffffff"
     bordercolor="#666666"
     borderopacity="1.0"
     inkscape:pageopacity="0.0"
     inkscape:pageshadow="2"
     inkscape:zoom="1.979899"
     inkscape:cx="-4.8975026"
     inkscape:cy="58.032055"
     inkscape:document-units="mm"
     inkscape:current-layer="layer1"
     showgrid="false"
     inkscape:snap-global="false"
     fit-margin-top="0"
     fit-margin-left="0"
     fit-margin-right="0"
     fit-margin-bottom="0"
     inkscape:window-width="1536"
     inkscape:window-height="793"
     inkscape:window-x="-8"
     inkscape:window-y="-8"
     inkscape:window-maximized="1" />
  <metadata
     id="metadata5">
    <rdf:RDF>
      <cc:Work
         rdf:about="">
        <dc:format>image/svg+xml</dc:format>
        <dc:type
           rdf:resource="http://purl.org/dc/dcmitype/StillImage" />
        <dc:title></dc:title>
      </cc:Work>
    </rdf:RDF>
  </metadata>
  <g
     inkscape:label="Layer 1"
     inkscape:groupmode="layer"
     id="layer1"
     transform="translate(-56.981922,-127.52534)">
    <path
       sodipodi:type="star"
       style="fill:#000000;fill-opacity:1;stroke:#f7d236;stroke-width:0.26458332;stroke-opacity:0.99061028"
       id="path4519"
       sodipodi:sides="4"
       sodipodi:cx="70.870537"
       sodipodi:cy="153.13281"
       sodipodi:r1="13.709781"
       sodipodi:r2="9.6942787"
       sodipodi:arg1="1.5363272"
       sodipodi:arg2="2.3217254"
       inkscape:flatsided="true"
       inkscape:rounded="0"
       inkscape:randomized="0"
       d="M 71.343007,166.83445 57.1689,153.60528 l 13.229166,-14.1741 14.174108,13.22916 z"
       inkscape:transform-center-x="1.0380952e-006"
       inkscape:transform-center-y="-1.3262561e-006" />
    <path
       inkscape:transform-center-y="-1.3262561e-006"
       inkscape:transform-center-x="1.0380952e-006"
       d="M 98.93527,166.07848 84.761162,152.84932 97.990328,138.67521 112.16444,151.90438 Z"
       inkscape:randomized="0"
       inkscape:rounded="0"
       inkscape:flatsided="true"
       sodipodi:arg2="2.3217254"
       sodipodi:arg1="1.5363272"
       sodipodi:r2="9.6942787"
       sodipodi:r1="13.709781"
       sodipodi:cy="152.37685"
       sodipodi:cx="98.462799"
       sodipodi:sides="4"
       id="path4521"
       style="fill:#000000;fill-opacity:1;stroke:#f7d236;stroke-width:0.26458332;stroke-opacity:0.99061028"
       sodipodi:type="star" />
    <path
       sodipodi:type="star"
       style="fill:#000000;fill-opacity:1;stroke:#f7d236;stroke-width:0.26458332;stroke-opacity:0.99061028"
       id="path4523"
       sodipodi:sides="4"
       sodipodi:cx="130.49628"
       sodipodi:cy="119.0677"
       sodipodi:r1="13.709781"
       sodipodi:r2="9.6942787"
       sodipodi:arg1="1.5363272"
       sodipodi:arg2="2.3217254"
       inkscape:flatsided="true"
       inkscape:rounded="0"
       inkscape:randomized="0"
       d="m 130.96875,132.76934 -14.17411,-13.22917 13.22917,-14.1741 14.1741,13.22916 z"
       inkscape:transform-center-x="-4.5693511e-006"
       transform="matrix(1.7279048,0,0,1.7247095,-140.91296,-53.878032)"
       inkscape:transform-center-y="1.9676868e-006" />
    <path
       inkscape:transform-center-y="-2.0494468e-006"
       transform="matrix(1.5609391,0,0,1.5991194,-118.98282,-39.160552)"
       inkscape:transform-center-x="-6.0855835e-006"
       d="m 130.96875,132.76934 -14.17411,-13.22917 13.22917,-14.1741 14.1741,13.22916 z"
       inkscape:randomized="0"
       inkscape:rounded="0"
       inkscape:flatsided="true"
       sodipodi:arg2="2.3217254"
       sodipodi:arg1="1.5363272"
       sodipodi:r2="9.6942787"
       sodipodi:r1="13.709781"
       sodipodi:cy="119.0677"
       sodipodi:cx="130.49628"
       sodipodi:sides="4"
       id="path4630"
       style="fill:#000000;fill-opacity:1;stroke:url(#linearGradient4536);stroke-width:0.26458332;stroke-opacity:0.99061028"
       sodipodi:type="star" />
    <path
       style="fill:url(#radialGradient4595);stroke:none;stroke-width:0.271;stroke-miterlimit:4;stroke-dasharray:none;stroke-opacity:1;fill-opacity:1"
       d="m 76.13974,161.59142 c -0.0621,-0.065 -0.111969,-4.29468 -0.110819,-9.39926 l 0.0019,-9.28104 1.695072,-1.79413 1.695078,-1.79412 6.443335,0.0458 6.443333,0.0458 v 11.10229 11.10227 l -8.027591,0.0453 c -4.415177,0.0249 -8.078402,-0.008 -8.1405,-0.0729 z m 15.583647,-11.0748 v -10.49034 h -6.011448 -6.011448 v 1.66097 1.66097 h -1.502862 -1.502862 v 8.82938 8.82937 h 7.51431 7.51431 z m -14.321802,4.67695 0.04463,-4.41469 h 6.762879 6.762879 l 0.04463,4.41469 0.04459,4.41468 h -6.852096 -6.852104 z m 13.114419,0 0.04502,-3.80275 h -6.348685 -6.348671 v 3.72989 c 0,2.05145 0.05099,3.7833 0.113323,3.84857 0.06233,0.0653 2.89898,0.098 6.303671,0.0729 l 6.190347,-0.0458 z m -11.483451,2.75371 c 0,-0.22748 0.686493,-0.26226 5.176524,-0.26226 4.490036,0 5.176524,0.0348 5.176524,0.26226 0,0.22748 -0.686488,0.26226 -5.176524,0.26226 -4.490031,0 -5.176524,-0.0348 -5.176524,-0.26226 z m 0,-1.39871 c 0,-0.22748 0.686493,-0.26226 5.176524,-0.26226 4.490036,0 5.176524,0.0348 5.176524,0.26226 0,0.22747 -0.686488,0.26226 -5.176524,0.26226 -4.490031,0 -5.176524,-0.0348 -5.176524,-0.26226 z m 0,-1.39872 c 0,-0.22747 0.686493,-0.26225 5.176524,-0.26225 4.490036,0 5.176524,0.0348 5.176524,0.26225 0,0.22748 -0.686488,0.26227 -5.176524,0.26227 -4.490031,0 -5.176524,-0.0348 -5.176524,-0.26227 z m 0,-1.39871 c 0,-0.22748 0.686493,-0.26225 5.176524,-0.26225 4.490036,0 5.176524,0.0348 5.176524,0.26225 0,0.22748 -0.686488,0.26226 -5.176524,0.26226 -4.490031,0 -5.176524,-0.0348 -5.176524,-0.26226 z m 0,-1.39872 c 0,-0.22747 0.686493,-0.26224 5.176524,-0.26224 4.490036,0 5.176524,0.0348 5.176524,0.26224 0,0.22749 -0.686488,0.26227 -5.176524,0.26227 -4.490031,0 -5.176524,-0.0348 -5.176524,-0.26227 z m 3.590169,-2.6774 c -1.646625,-0.80909 -2.463022,-2.12144 -2.463022,-3.95929 0,-3.79811 4.322529,-5.71199 6.871922,-3.04268 1.857916,1.94531 1.501741,5.26005 -0.719721,6.69807 -1.047289,0.67795 -2.657912,0.81062 -3.689179,0.3039 z m 2.671757,-0.50343 c 1.216131,-0.32286 2.42128,-2.04652 2.42128,-3.46305 0,-0.41802 -0.176761,-1.08951 -0.422994,-1.60687 -1.280921,-2.69138 -4.877688,-2.70979 -6.152381,-0.0315 -0.547932,1.15128 -0.556802,2.0632 -0.03157,3.24439 0.743644,1.67231 2.292676,2.35957 4.185648,1.85703 z m -0.474715,-1.46202 c -0.516785,-0.42562 -0.575002,-1.03563 -0.138329,-1.44941 0.882475,-0.83619 2.219275,0.3488 1.489713,1.32055 -0.357937,0.47675 -0.869725,0.52555 -1.351384,0.12886 z m 0.892175,-0.67941 c 0,-0.18665 -0.08169,-0.39223 -0.181531,-0.45684 -0.255336,-0.16522 -0.550843,0.19336 -0.430325,0.52219 0.143138,0.39056 0.611856,0.34049 0.611856,-0.0654 z m -2.950826,0.0621 c -0.06955,-0.18978 0.286382,-0.68622 1.128207,-1.57356 1.150293,-1.21249 1.822619,-1.60511 1.822619,-1.06438 0,0.22677 -2.528069,2.91517 -2.74131,2.91517 -0.05935,0 -0.153633,-0.12475 -0.209516,-0.27723 z m -0.460429,-1.92076 c -0.2755,-0.28845 -0.342762,-0.90252 -0.13461,-1.22892 0.06747,-0.10581 0.296791,-0.28842 0.509592,-0.40581 0.800454,-0.44157 1.638909,0.66124 1.125949,1.48094 -0.314144,0.502 -1.092223,0.58173 -1.500931,0.15379 z m 1.017393,-0.52378 c 0.151957,-0.41461 -0.204191,-0.70704 -0.523351,-0.4297 -0.197782,0.17186 -0.214481,0.28253 -0.07012,0.46465 0.250057,0.31548 0.469787,0.30253 0.593472,-0.035 z m -4.118538,-2.99874 v -1.1747 l -1.00191,1.03809 c -0.551046,0.57094 -1.001905,1.09956 -1.001905,1.17469 0,0.0751 0.450859,0.13661 1.001905,0.13661 h 1.00191 z"
       id="path4545"
       inkscape:connector-curvature="0" />
  </g>
</svg>
