<?xml version="1.0" encoding="UTF-8" standalone="no"?>
<!-- Created with Inkscape (http://www.inkscape.org/) -->

<svg
   xmlns:dc="http://purl.org/dc/elements/1.1/"
   xmlns:cc="http://creativecommons.org/ns#"
   xmlns:rdf="http://www.w3.org/1999/02/22-rdf-syntax-ns#"
   xmlns:svg="http://www.w3.org/2000/svg"
   xmlns="http://www.w3.org/2000/svg"
   xmlns:xlink="http://www.w3.org/1999/xlink"
   xmlns:sodipodi="http://sodipodi.sourceforge.net/DTD/sodipodi-0.dtd"
   xmlns:inkscape="http://www.inkscape.org/namespaces/inkscape"
   width="55.369492mm"
   height="47.90765mm"
   viewBox="0 0 55.369492 47.90765"
   version="1.1"
   id="svg8"
   inkscape:version="0.92.1 r15371"
   sodipodi:docname="icon1.svg">
  <defs
     id="defs2">
    <linearGradient
       inkscape:collect="always"
       id="linearGradient4509">
      <stop
         style="stop-color:#ffff0b;stop-opacity:1;"
         offset="0"
         id="stop4505" />
      <stop
         style="stop-color:#f7d236;stop-opacity:0.9906103"
         offset="1"
         id="stop4507" />
    </linearGradient>
    <linearGradient
       inkscape:collect="always"
       xlink:href="#linearGradient4509"
       id="linearGradient4511"
       x1="132.77841"
       y1="113.68155"
       x2="142.57722"
       y2="113.11459"
       gradientUnits="userSpaceOnUse"
       gradientTransform="translate(-56.885417,1.889881)" />
    <linearGradient
       inkscape:collect="always"
       xlink:href="#linearGradient4509"
       id="linearGradient4533"
       x1="98.355309"
       y1="162.48735"
       x2="113.39133"
       y2="162.48735"
       gradientUnits="userSpaceOnUse"
       gradientTransform="matrix(0.96564263,0,0,0.70724867,3.4007039,48.031116)" />
    <radialGradient
       inkscape:collect="always"
       xlink:href="#linearGradient4509"
       id="radialGradient5186"
       cx="99.954666"
       cy="115.21298"
       fx="99.954666"
       fy="115.21298"
       r="13.468562"
       gradientTransform="matrix(1,0,0,0.60453959,0,45.562173)"
       gradientUnits="userSpaceOnUse" />
  </defs>
  <sodipodi:namedview
     id="base"
     pagecolor="#ffffff"
     bordercolor="#666666"
     borderopacity="1.0"
     inkscape:pageopacity="0.0"
     inkscape:pageshadow="2"
     inkscape:zoom="2.8"
     inkscape:cx="52.359576"
     inkscape:cy="101.29697"
     inkscape:document-units="mm"
     inkscape:current-layer="layer1"
     showgrid="false"
     inkscape:snap-global="false"
     fit-margin-top="0"
     fit-margin-left="0"
     fit-margin-right="0"
     fit-margin-bottom="0"
     inkscape:window-width="1536"
     inkscape:window-height="793"
     inkscape:window-x="-8"
     inkscape:window-y="-8"
     inkscape:window-maximized="1" />
  <metadata
     id="metadata5">
    <rdf:RDF>
      <cc:Work
         rdf:about="">
        <dc:format>image/svg+xml</dc:format>
        <dc:type
           rdf:resource="http://purl.org/dc/dcmitype/StillImage" />
        <dc:title />
      </cc:Work>
    </rdf:RDF>
  </metadata>
  <g
     inkscape:label="Layer 1"
     inkscape:groupmode="layer"
     id="layer1"
     transform="translate(-72.289951,-92.231813)">
    <path
       sodipodi:type="star"
       style="fill:#000000;fill-opacity:1;stroke:#f7d236;stroke-width:0.26458332;stroke-opacity:0.99061028"
       id="path4519"
       sodipodi:sides="4"
       sodipodi:cx="86.178566"
       sodipodi:cy="117.83929"
       sodipodi:r1="13.709781"
       sodipodi:r2="9.6942787"
       sodipodi:arg1="1.5363272"
       sodipodi:arg2="2.3217254"
       inkscape:flatsided="true"
       inkscape:rounded="0"
       inkscape:randomized="0"
       d="M 86.651037,131.54092 72.476929,118.31176 85.706095,104.13765 99.880203,117.36682 Z"
       inkscape:transform-center-x="1.0380952e-006"
       inkscape:transform-center-y="-1.3262561e-006" />
    <path
       inkscape:transform-center-y="-1.3262561e-006"
       inkscape:transform-center-x="1.0380952e-006"
       d="m 114.2433,130.78497 -14.17411,-13.22917 13.22917,-14.17411 14.17411,13.22917 z"
       inkscape:randomized="0"
       inkscape:rounded="0"
       inkscape:flatsided="true"
       sodipodi:arg2="2.3217254"
       sodipodi:arg1="1.5363272"
       sodipodi:r2="9.6942787"
       sodipodi:r1="13.709781"
       sodipodi:cy="117.08333"
       sodipodi:cx="113.77083"
       sodipodi:sides="4"
       id="path4521"
       style="fill:#000000;fill-opacity:1;stroke:#f7d236;stroke-width:0.26458332;stroke-opacity:0.99061028"
       sodipodi:type="star" />
    <path
       sodipodi:type="star"
       style="fill:#000000;fill-opacity:1;stroke:#f7d236;stroke-width:0.26458332;stroke-opacity:0.99061028"
       id="path4523"
       sodipodi:sides="4"
       sodipodi:cx="130.49628"
       sodipodi:cy="119.0677"
       sodipodi:r1="13.709781"
       sodipodi:r2="9.6942787"
       sodipodi:arg1="1.5363272"
       sodipodi:arg2="2.3217254"
       inkscape:flatsided="true"
       inkscape:rounded="0"
       inkscape:randomized="0"
       d="m 130.96875,132.76934 -14.17411,-13.22917 13.22917,-14.1741 14.1741,13.22916 z"
       inkscape:transform-center-x="-4.5693511e-006"
       transform="matrix(1.7279048,0,0,1.7247095,-125.60493,-89.17156)"
       inkscape:transform-center-y="1.9676868e-006" />
    <path
       inkscape:transform-center-y="-2.0494468e-006"
       transform="matrix(1.5609391,0,0,1.5991194,-103.67479,-74.454074)"
       inkscape:transform-center-x="-6.0855835e-006"
       d="m 130.96875,132.76934 -14.17411,-13.22917 13.22917,-14.1741 14.1741,13.22916 z"
       inkscape:randomized="0"
       inkscape:rounded="0"
       inkscape:flatsided="true"
       sodipodi:arg2="2.3217254"
       sodipodi:arg1="1.5363272"
       sodipodi:r2="9.6942787"
       sodipodi:r1="13.709781"
       sodipodi:cy="119.0677"
       sodipodi:cx="130.49628"
       sodipodi:sides="4"
       id="path4630"
       style="fill:#000000;fill-opacity:1;stroke:#f7d236;stroke-width:0.26458332;stroke-opacity:1"
       sodipodi:type="star" />
    <path
       style="fill:url(#radialGradient5186);stroke:#f7d236;stroke-width:0.12745775;stroke-miterlimit:4;stroke-dasharray:none;stroke-opacity:1;fill-opacity:1"
       d="m 88.212163,123.27445 c -0.698812,-0.0509 -0.822461,-0.0713 -0.937864,-0.15448 -0.186581,-0.13451 -0.2493,-0.35607 -0.249669,-0.88203 -4.33e-4,-0.43631 0.044,-0.92499 0.08107,-0.89329 0.0094,0.008 0.04243,0.22715 0.07333,0.48682 0.07222,0.60704 0.15369,0.92882 0.260119,1.02756 0.07526,0.0698 0.135243,0.0809 0.619776,0.11473 1.359632,0.0948 2.061847,0.1338 2.433191,0.13493 0.485225,0.002 0.449253,0.0422 -0.103007,0.11649 -0.432468,0.0582 -1.66988,0.0862 -2.176909,0.0493 z m 21.745447,-0.002 c -0.39829,-0.0354 -0.80399,-0.0973 -0.88132,-0.13436 -0.034,-0.0163 0.10237,-0.028 0.33482,-0.0286 0.38045,-9.3e-4 1.50591,-0.0651 2.5158,-0.14329 0.45699,-0.0354 0.49941,-0.0444 0.56533,-0.12035 0.0901,-0.10377 0.16972,-0.42876 0.22448,-0.91614 0.0235,-0.20934 0.0531,-0.43232 0.0659,-0.49551 l 0.0231,-0.11491 0.0312,0.13131 c 0.0172,0.0722 0.0422,0.33076 0.0558,0.57452 0.0263,0.47241 -0.0105,0.74495 -0.12807,0.94715 -0.10428,0.17938 -0.21672,0.22755 -0.62279,0.26683 -0.50329,0.0486 -1.79047,0.0683 -2.18413,0.0333 z m -16.227663,-1.70844 c -5.411088,-0.0331 -6.382525,-0.0875 -6.625866,-0.37023 -0.07674,-0.0892 -0.07969,-0.13022 -0.07822,-1.08337 8.58e-4,-0.54487 0.02601,-1.33046 0.0558,-1.74575 0.02988,-0.4153 0.04639,-0.97668 0.0368,-1.24752 -0.0097,-0.27085 -0.01614,-0.86916 -0.01448,-1.32959 0.0046,-1.33728 0.01891,-1.36678 1.152013,-2.40667 0.188406,-0.17292 0.325171,-0.32851 0.340168,-0.387 0.03053,-0.11891 0.358726,-0.42867 0.692171,-0.65317 0.135197,-0.091 0.245804,-0.16002 0.245804,-0.15334 0,0.006 -0.161023,0.13109 -0.357832,0.27645 -0.302269,0.22325 -0.382375,0.30427 -0.515911,0.52186 -0.105553,0.17199 -0.280539,0.37214 -0.526574,0.6023 -0.630512,0.58981 -0.772423,0.79698 -0.858967,1.25389 -0.05211,0.27528 -0.04584,1.32512 0.01181,1.98485 0.03081,0.35192 0.03625,0.72743 0.01633,1.11621 -0.04077,0.79445 -0.05553,2.96204 -0.02094,3.06729 0.0582,0.17704 0.472358,0.21905 2.558573,0.25957 2.106184,0.0409 18.247004,0.0408 20.251054,-1.8e-4 2.02112,-0.0413 2.47053,-0.0835 2.53624,-0.2383 0.0387,-0.0913 0.025,-2.25358 -0.0197,-3.09602 -0.0241,-0.45364 -0.0195,-0.76596 0.0167,-1.13262 0.0698,-0.7079 0.0675,-1.65839 -0.005,-2.01429 -0.0888,-0.43622 -0.16132,-0.53312 -1.04542,-1.39682 -0.13275,-0.12969 -0.28162,-0.31377 -0.33081,-0.40907 -0.0492,-0.0953 -0.16905,-0.24445 -0.26634,-0.33145 -0.24596,-0.21992 -0.22203,-0.23161 0.0327,-0.016 0.11532,0.0976 0.25182,0.25367 0.30333,0.34688 0.0578,0.10456 0.25749,0.3191 0.52141,0.56013 0.75968,0.69379 0.86923,0.86425 0.95727,1.48958 0.047,0.33397 0.0481,1.23383 0.003,1.82289 -0.0235,0.30274 -0.0163,0.67009 0.025,1.26393 0.0319,0.46044 0.0607,1.31787 0.0637,1.90541 0.005,0.9841 3e-5,1.07549 -0.0645,1.15998 -0.18024,0.23604 -0.76991,0.29605 -3.41689,0.34769 -2.19721,0.0429 -11.001662,0.0611 -15.672055,0.0326 z m -0.478971,-0.85283 c 0.10166,-0.0577 0.660368,-0.19254 1.014722,-0.24495 0.189292,-0.028 0.723826,-0.0661 1.187855,-0.0848 0.887763,-0.0357 7.939657,-0.05 8.588927,-0.0175 0.208,0.0105 0.57648,0.0273 0.81883,0.0375 0.48397,0.0204 0.81755,0.0582 1.16871,0.13267 0.26651,0.0565 0.67956,0.18109 0.65898,0.19872 -0.007,0.006 -0.14425,-0.0165 -0.30336,-0.0513 -0.69908,-0.15318 -0.69859,-0.15318 -5.56686,-0.0484 -0.52268,0.0112 -2.06783,-0.004 -3.579658,-0.0355 -2.82751,-0.0588 -3.086558,-0.053 -3.711315,0.0839 -0.328999,0.0721 -0.356752,0.0751 -0.276831,0.0298 z m -4.603883,-0.25939 c -0.565598,-0.0205 -0.625034,-0.0395 -0.74421,-0.23695 -0.07785,-0.1289 -0.0356,-0.60744 0.09852,-1.117 0.126471,-0.48057 0.193691,-0.60344 0.381563,-0.69744 0.14489,-0.0725 0.434266,-0.0829 1.151173,-0.0414 0.678225,0.0393 3.424717,0.32321 3.544409,0.36642 0.04667,0.0168 -0.388029,3e-4 -2.199202,-0.0832 -1.531252,-0.0707 -2.172971,-0.0802 -2.31384,-0.0343 -0.122367,0.0399 -0.155137,0.12188 -0.295684,0.74018 -0.124894,0.54942 -0.126462,0.74839 -0.0065,0.80194 0.03496,0.0155 1.00335,0.0386 2.151932,0.0511 1.989351,0.0216 2.106488,0.0196 2.471504,-0.0425 0.210746,-0.0359 0.495261,-0.10017 0.632247,-0.14287 l 0.249069,-0.0777 -0.0083,-0.14663 c -0.01107,-0.20283 -0.149752,-0.55647 -0.304419,-0.77653 -0.182098,-0.25908 -0.13849,-0.24943 0.06373,0.0142 0.319517,0.41639 0.466132,0.86001 0.327588,0.99118 -0.1284,0.12156 -0.870727,0.33699 -1.362289,0.39536 -0.303754,0.0361 -3.112614,0.0625 -3.837777,0.0362 z m 19.509567,-0.002 c -0.70194,-0.0226 -0.87486,-0.0387 -1.1687,-0.10907 -0.46767,-0.11202 -0.7587,-0.20827 -0.88286,-0.29195 -0.0961,-0.0647 -0.10224,-0.0834 -0.0838,-0.25308 0.0229,-0.21024 0.21637,-0.592 0.4257,-0.83969 0.16892,-0.19986 0.1809,-0.17762 0.0221,0.0412 -0.1308,0.18027 -0.29764,0.57676 -0.3314,0.78751 -0.022,0.13682 -0.0196,0.14034 0.12657,0.19371 0.22034,0.0805 0.63757,0.17046 0.98854,0.21325 0.44321,0.054 4.32089,0.006 4.41783,-0.0549 0.0953,-0.0597 0.0816,-0.32291 -0.0441,-0.85265 -0.13314,-0.56096 -0.15869,-0.62341 -0.27331,-0.66817 -0.14306,-0.0558 -0.69456,-0.0466 -2.68163,0.0447 -0.9854,0.0453 -1.8004,0.0748 -1.81111,0.0657 -0.0107,-0.009 0.003,-0.0167 0.0299,-0.0167 0.0271,0 0.224,-0.0218 0.43746,-0.0485 1.85352,-0.23139 3.70632,-0.37449 4.03395,-0.31159 0.33706,0.0647 0.39637,0.1527 0.57251,0.84928 0.15089,0.59675 0.16646,0.88822 0.0558,1.04374 -0.14651,0.20588 -0.11925,0.20224 -1.6302,0.21861 -0.75869,0.008 -1.75017,0.003 -2.20327,-0.0115 z m -11.871183,-0.16667 c -0.553054,-0.0615 -0.879572,-0.20497 -1.056357,-0.46407 -0.345177,-0.5059 -1.291812,-3.36418 -1.303258,-3.93506 -0.0046,-0.25267 0.05562,-0.34959 0.438997,-0.70069 0.303579,-0.27804 0.584118,-0.39871 1.031915,-0.44387 0.926777,-0.0934 4.32208,-0.19256 5.479486,-0.15996 1.31325,0.037 3.31627,0.12407 3.65499,0.15889 0.5134,0.0528 0.85993,0.23912 1.24971,0.67198 0.20944,0.23259 0.2457,0.35498 0.19278,0.65066 -0.0896,0.50054 -0.64226,2.27546 -0.94724,3.04211 -0.30378,0.76361 -0.48262,0.98049 -0.90078,1.09232 -0.21149,0.0566 -0.86984,0.13719 -0.90115,0.11036 -0.01,-0.008 0.0655,-0.0244 0.16757,-0.0354 0.80633,-0.0872 1.07104,-0.19456 1.25752,-0.51014 0.21913,-0.37083 0.70015,-1.89328 0.99577,-3.15161 0.14393,-0.61271 0.16135,-0.78262 0.0919,-0.89677 -0.0842,-0.13832 -0.47413,-0.49419 -0.6407,-0.58469 -0.29726,-0.16151 -0.43445,-0.17228 -2.87924,-0.22599 -0.85353,-0.0187 -1.65533,-0.04 -1.78178,-0.0474 -0.31176,-0.0181 -4.251468,0.0727 -4.836721,0.11144 -0.559418,0.0371 -0.728124,0.0918 -1.02616,0.33336 -0.292428,0.23695 -0.440436,0.43698 -0.440436,0.59521 0,0.28966 0.506587,2.2254 0.835742,3.19351 0.342143,1.00629 0.472885,1.08852 1.923155,1.20942 0.07379,0.006 0.02204,0.0116 -0.114961,0.0122 -0.136986,5.8e-4 -0.357822,-0.011 -0.49074,-0.0258 z m 6.689133,0.012 c 0.0476,-0.007 0.11663,-0.007 0.15327,5.6e-4 0.0366,0.008 -0.003,0.0147 -0.0867,0.0143 -0.0843,-3.2e-4 -0.11427,-0.007 -0.0666,-0.015 z m -13.651229,-3.88455 c -0.527137,-0.0807 -0.90929,-0.17709 -1.124279,-0.2838 -0.255968,-0.12703 -0.289283,-0.22401 -0.291275,-0.84777 -0.0018,-0.60101 0.05285,-0.80713 0.2525,-0.95108 0.112157,-0.0808 0.130493,-0.0831 0.696598,-0.0831 1.006329,6e-5 1.7339,0.0973 4.176839,0.55799 0.586545,0.11063 1.103839,0.21507 1.149541,0.23208 0.07056,0.0263 0.06586,0.0286 -0.03182,0.0151 -0.06327,-0.008 -0.502925,-0.0613 -0.97711,-0.11684 -0.474185,-0.0556 -1.233511,-0.15101 -1.687395,-0.21216 -0.453893,-0.0611 -1.00073,-0.12662 -1.215202,-0.14547 -0.575384,-0.0506 -1.538198,-0.081 -1.740827,-0.0549 -0.25345,0.0326 -0.280428,0.10439 -0.280428,0.7467 0,0.45967 0.0074,0.52091 0.07323,0.58298 0.139707,0.13227 1.228124,0.36432 1.708784,0.36432 0.198303,0 0.274073,-0.0213 0.613043,-0.17235 l 0.386765,-0.17236 0.448332,0.002 c 0.246587,9.2e-4 0.695334,0.0142 0.997225,0.0298 l 0.548895,0.0282 0.385824,-0.32524 0.385824,-0.32524 -0.316953,0.33597 c -0.174331,0.18479 -0.343314,0.35468 -0.375522,0.37754 -0.04335,0.0308 -0.292852,0.0422 -0.962619,0.0438 -1.017803,0.002 -1.028576,0.005 -1.534462,0.28666 -0.233426,0.13019 -0.264426,0.13827 -0.555609,0.14497 -0.17601,0.004 -0.48932,-0.0205 -0.729885,-0.0573 z m 20.220399,0.0322 c -0.0484,-0.0166 -0.1654,-0.0758 -0.25986,-0.13153 -0.0944,-0.0557 -0.26806,-0.13902 -0.38579,-0.1852 -0.20954,-0.0822 -0.23345,-0.0841 -1.13353,-0.0879 l -0.91947,-0.004 -0.13251,-0.13132 c -0.0729,-0.0722 -0.23748,-0.24212 -0.36575,-0.37754 l -0.23322,-0.24622 0.38464,0.32374 0.38465,0.32374 0.30157,-0.004 c 0.16588,-0.002 0.46938,-0.0198 0.67448,-0.0399 0.20509,-0.0201 0.51727,-0.0314 0.69376,-0.025 0.30091,0.0109 0.34808,0.0232 0.75749,0.19778 l 0.43662,0.18618 0.27975,-0.0284 c 0.67126,-0.0682 1.43967,-0.24693 1.56288,-0.36352 0.0654,-0.0619 0.0732,-0.12303 0.0732,-0.56656 0,-0.61273 -0.0371,-0.73104 -0.23945,-0.76357 -0.16194,-0.0261 -1.29237,0.008 -1.79141,0.054 -0.35615,0.0328 -1.13521,0.12997 -1.70514,0.21266 -0.48819,0.0709 -2.27232,0.2797 -2.28637,0.26767 -0.006,-0.006 0.35408,-0.0804 0.80178,-0.16573 0.44771,-0.0854 0.96059,-0.18336 1.13973,-0.21772 1.60235,-0.30736 2.57317,-0.42618 3.4824,-0.42625 l 0.58941,-3e-5 0.1248,0.11338 c 0.18097,0.1644 0.22959,0.36908 0.22651,0.95358 -0.003,0.57969 -0.0444,0.69271 -0.29935,0.8192 -0.44052,0.21849 -1.84434,0.42095 -2.16189,0.31178 z m 1.11907,-4.0446 -0.073,-0.0739 0.0862,0.0625 c 0.0474,0.0344 0.0862,0.0676 0.0862,0.0739 0,0.0263 -0.0309,0.006 -0.0994,-0.0625 z m -0.212,-0.14773 c -0.0476,-0.0521 -0.0463,-0.0533 0.0145,-0.0124 0.0638,0.0429 0.0841,0.0698 0.0526,0.0698 -0.008,0 -0.0382,-0.0259 -0.067,-0.0574 z m -22.492857,-0.10916 c -0.333915,-0.0303 -0.722737,-0.11066 -0.893665,-0.18462 -0.476288,-0.20607 -0.631721,-0.53974 -0.426952,-0.91654 0.198931,-0.36603 0.742337,-0.55655 1.689738,-0.59244 0.779018,-0.0295 0.896257,0.0232 1.194367,0.53686 0.14763,0.25437 0.17471,0.27482 0.330235,0.24935 0.08642,-0.0142 0.146145,-0.0887 0.39074,-0.48765 1.135946,-1.85268 2.028237,-2.90362 2.742009,-3.22957 0.357131,-0.16309 0.486351,-0.17723 2.718858,-0.29759 2.638153,-0.14222 7.697917,-0.0991 10.039317,0.0855 0.73843,0.0583 0.89961,0.0853 1.14518,0.19187 0.7151,0.31045 1.54614,1.27186 2.7054,3.12977 0.31379,0.5029 0.38402,0.59381 0.46962,0.60783 0.15049,0.0247 0.16998,0.01 0.32487,-0.24805 0.29001,-0.48272 0.40989,-0.54893 0.99446,-0.54925 0.92827,-5.8e-4 1.62191,0.20272 1.85501,0.54351 0.22539,0.32949 0.13437,0.68507 -0.22855,0.89287 -0.32303,0.18496 -0.75403,0.2642 -1.55663,0.28619 l -0.51729,0.0142 0.54439,-0.0451 c 0.89036,-0.0738 1.2592,-0.16103 1.53464,-0.36302 0.18417,-0.13506 0.25796,-0.29591 0.22261,-0.48529 -0.0546,-0.2927 -0.26262,-0.45448 -0.75451,-0.58688 -0.24851,-0.0669 -0.36021,-0.076 -0.92488,-0.076 h -0.64223 l -0.0958,0.0985 c -0.0528,0.0542 -0.1662,0.22057 -0.25221,0.3698 -0.17048,0.29582 -0.22394,0.33625 -0.44371,0.33558 -0.28759,-9.3e-4 -0.28772,-9.3e-4 -0.74205,-0.70028 -0.82559,-1.27071 -1.47966,-2.10653 -2.00978,-2.56822 -0.41896,-0.36489 -0.61064,-0.46453 -1.00454,-0.52224 -1.43282,-0.20994 -8.812231,-0.27155 -11.697867,-0.0977 -0.658293,0.0397 -1.148314,0.0881 -1.326981,0.13125 -0.324184,0.0783 -0.740704,0.37733 -1.179148,0.84672 -0.407066,0.4358 -1.165313,1.47152 -1.762123,2.40696 -0.313264,0.49098 -0.327357,0.50262 -0.610221,0.50349 -0.212941,5.7e-4 -0.285852,-0.0467 -0.393729,-0.25568 -0.14073,-0.27264 -0.308541,-0.48307 -0.419877,-0.52653 -0.05792,-0.0227 -0.295241,-0.0378 -0.584284,-0.0375 -0.907741,9.2e-4 -1.464364,0.1701 -1.651655,0.50158 -0.198192,0.35076 0.0046,0.67789 0.524794,0.8446 0.434524,0.1394 1.629453,0.24757 1.760647,0.15939 0.06106,-0.0411 0.06244,-0.0399 0.01476,0.0122 -0.04418,0.0482 -0.111825,0.0568 -0.421501,0.0531 -0.202896,-0.002 -0.500527,-0.0164 -0.661392,-0.0309 z m 2.123045,-0.16822 c 0.781222,-1.65557 1.688215,-3.05272 2.333974,-3.59529 l 0.203717,-0.17116 0.344854,-0.0338 c 0.18968,-0.0186 0.413836,-0.0321 0.498138,-0.03 0.138748,0.004 0.133306,0.006 -0.05746,0.0291 -0.11591,0.014 -0.331452,0.0358 -0.478971,0.0487 -0.247049,0.0215 -0.279571,0.0335 -0.411844,0.1525 -0.446145,0.40138 -1.03458,1.2756 -1.595594,2.37049 -0.280752,0.54794 -0.47804,0.97236 -0.4594,0.98828 0.0083,0.006 0.20416,-0.007 0.435981,-0.0314 0.570487,-0.0591 1.945762,-0.13705 3.314506,-0.18785 1.551747,-0.0576 9.981561,-0.0576 11.495381,-4e-5 1.34301,0.0511 2.70951,0.12853 3.29534,0.18677 0.24237,0.0241 0.44709,0.0386 0.45494,0.0321 0.0452,-0.0369 -0.6171,-1.32281 -1.05585,-2.05 -0.3622,-0.60033 -0.67124,-1.0066 -0.98244,-1.29157 -0.15189,-0.13907 -0.17388,-0.14778 -0.42834,-0.16964 -0.14752,-0.0127 -0.36305,-0.0345 -0.47897,-0.0484 -0.31154,-0.0375 -0.0281,-0.0387 0.4177,-0.002 l 0.36022,0.0298 0.18759,0.15804 c 0.44514,0.37499 0.98782,1.09982 1.53167,2.0457 0.3239,0.56334 0.85008,1.57547 0.82834,1.59335 -0.006,0.006 -0.14366,-0.0107 -0.30577,-0.0351 -1.11031,-0.16615 -5.22648,-0.25022 -11.009048,-0.22485 -5.176666,0.0227 -7.495025,0.0951 -8.367734,0.26119 -0.06484,0.0124 -0.08523,0.006 -0.07093,-0.0253 z"
       id="path4616"
       inkscape:connector-curvature="0" />
  </g>
</svg>
