<?xml version="1.0" encoding="UTF-8" standalone="no"?>
<!-- Created with Inkscape (http://www.inkscape.org/) -->

<svg
   xmlns:dc="http://purl.org/dc/elements/1.1/"
   xmlns:cc="http://creativecommons.org/ns#"
   xmlns:rdf="http://www.w3.org/1999/02/22-rdf-syntax-ns#"
   xmlns:svg="http://www.w3.org/2000/svg"
   xmlns="http://www.w3.org/2000/svg"
   xmlns:xlink="http://www.w3.org/1999/xlink"
   xmlns:sodipodi="http://sodipodi.sourceforge.net/DTD/sodipodi-0.dtd"
   xmlns:inkscape="http://www.inkscape.org/namespaces/inkscape"
   width="55.369499mm"
   height="47.90765mm"
   viewBox="0 0 55.369499 47.90765"
   version="1.1"
   id="svg8"
   inkscape:version="0.92.1 r15371"
   sodipodi:docname="icon4.svg">
  <defs
     id="defs2">
    <linearGradient
       id="linearGradient4548"
       inkscape:collect="always">
      <stop
         id="stop4544"
         offset="0"
         style="stop-color:#f7d236;stop-opacity:1;" />
      <stop
         id="stop4546"
         offset="1"
         style="stop-color:#ffc700;stop-opacity:0.93725491" />
    </linearGradient>
    <linearGradient
       inkscape:collect="always"
       id="linearGradient4534">
      <stop
         style="stop-color:#f7d236;stop-opacity:1;"
         offset="0"
         id="stop4530" />
      <stop
         style="stop-color:#fffd00;stop-opacity:0.93896711"
         offset="1"
         id="stop4532" />
    </linearGradient>
    <linearGradient
       inkscape:collect="always"
       xlink:href="#linearGradient4534"
       id="linearGradient4536"
       x1="116.60766"
       y1="119.0677"
       x2="144.38489"
       y2="119.0677"
       gradientUnits="userSpaceOnUse" />
    <radialGradient
       inkscape:collect="always"
       xlink:href="#linearGradient4548"
       id="radialGradient4542"
       cx="128.13982"
       cy="178.5914"
       fx="128.13982"
       fy="178.5914"
       r="10.82253"
       gradientTransform="matrix(1,0,0,0.95399658,0,8.0973422)"
       gradientUnits="userSpaceOnUse" />
  </defs>
  <sodipodi:namedview
     id="base"
     pagecolor="#ffffff"
     bordercolor="#666666"
     borderopacity="1.0"
     inkscape:pageopacity="0.0"
     inkscape:pageshadow="2"
     inkscape:zoom="2.8"
     inkscape:cx="98.220062"
     inkscape:cy="88.005787"
     inkscape:document-units="mm"
     inkscape:current-layer="layer1"
     showgrid="false"
     inkscape:snap-global="false"
     fit-margin-top="0"
     fit-margin-left="0"
     fit-margin-right="0"
     fit-margin-bottom="0"
     inkscape:window-width="1536"
     inkscape:window-height="793"
     inkscape:window-x="-8"
     inkscape:window-y="-8"
     inkscape:window-maximized="1" />
  <metadata
     id="metadata5">
    <rdf:RDF>
      <cc:Work
         rdf:about="">
        <dc:format>image/svg+xml</dc:format>
        <dc:type
           rdf:resource="http://purl.org/dc/dcmitype/StillImage" />
        <dc:title></dc:title>
      </cc:Work>
    </rdf:RDF>
  </metadata>
  <g
     inkscape:label="Layer 1"
     inkscape:groupmode="layer"
     id="layer1"
     transform="translate(-102.33906,-152.84975)">
    <path
       sodipodi:type="star"
       style="fill:#000000;fill-opacity:1;stroke:#f7d236;stroke-width:0.26458332;stroke-opacity:0.99061028"
       id="path4519"
       sodipodi:sides="4"
       sodipodi:cx="116.22768"
       sodipodi:cy="178.45721"
       sodipodi:r1="13.709781"
       sodipodi:r2="9.6942787"
       sodipodi:arg1="1.5363272"
       sodipodi:arg2="2.3217254"
       inkscape:flatsided="true"
       inkscape:rounded="0"
       inkscape:randomized="0"
       d="m 116.70015,192.15885 -14.17411,-13.22917 13.22917,-14.1741 14.1741,13.22916 z"
       inkscape:transform-center-x="1.0380952e-006"
       inkscape:transform-center-y="-1.3262561e-006" />
    <path
       inkscape:transform-center-y="-1.3262561e-006"
       inkscape:transform-center-x="1.0380952e-006"
       d="m 144.29242,191.40289 -14.17411,-13.22917 13.22917,-14.17411 14.1741,13.22917 z"
       inkscape:randomized="0"
       inkscape:rounded="0"
       inkscape:flatsided="true"
       sodipodi:arg2="2.3217254"
       sodipodi:arg1="1.5363272"
       sodipodi:r2="9.6942787"
       sodipodi:r1="13.709781"
       sodipodi:cy="177.70125"
       sodipodi:cx="143.81995"
       sodipodi:sides="4"
       id="path4521"
       style="fill:#000000;fill-opacity:1;stroke:#f7d236;stroke-width:0.26458332;stroke-opacity:0.99061028"
       sodipodi:type="star" />
    <path
       sodipodi:type="star"
       style="fill:#000000;fill-opacity:1;stroke:#f7d236;stroke-width:0.26458332;stroke-opacity:0.99061028"
       id="path4523"
       sodipodi:sides="4"
       sodipodi:cx="130.49628"
       sodipodi:cy="119.0677"
       sodipodi:r1="13.709781"
       sodipodi:r2="9.6942787"
       sodipodi:arg1="1.5363272"
       sodipodi:arg2="2.3217254"
       inkscape:flatsided="true"
       inkscape:rounded="0"
       inkscape:randomized="0"
       d="m 130.96875,132.76934 -14.17411,-13.22917 13.22917,-14.1741 14.1741,13.22916 z"
       inkscape:transform-center-x="-4.5693511e-006"
       transform="matrix(1.7279048,0,0,1.7247095,-95.555816,-28.553628)"
       inkscape:transform-center-y="1.9676868e-006" />
    <path
       inkscape:transform-center-y="-2.0494468e-006"
       transform="matrix(1.5609391,0,0,1.5991194,-73.625676,-13.836148)"
       inkscape:transform-center-x="-6.0855835e-006"
       d="m 130.96875,132.76934 -14.17411,-13.22917 13.22917,-14.1741 14.1741,13.22916 z"
       inkscape:randomized="0"
       inkscape:rounded="0"
       inkscape:flatsided="true"
       sodipodi:arg2="2.3217254"
       sodipodi:arg1="1.5363272"
       sodipodi:r2="9.6942787"
       sodipodi:r1="13.709781"
       sodipodi:cy="119.0677"
       sodipodi:cx="130.49628"
       sodipodi:sides="4"
       id="path4630"
       style="fill:#000000;fill-opacity:1;stroke:url(#linearGradient4536);stroke-width:0.26458332;stroke-opacity:0.99061028"
       sodipodi:type="star" />
    <path
       style="fill:url(#radialGradient4542);stroke:none;stroke-width:0.24157047;stroke-miterlimit:4;stroke-dasharray:none;stroke-opacity:1;fill-opacity:1"
       d="m 125.41129,186.00333 c -2.03968,-0.75629 -3.15085,-1.8332 -3.70062,-3.58656 -0.24365,-0.77703 -0.52,-1.20331 -1.0397,-1.60377 l -0.70786,-0.54546 v -6.501 -6.50101 l 0.61159,-0.46678 c 1.0793,-0.82375 2.64902,-1.1161 5.94437,-1.10712 2.52173,0.007 3.0736,0.0597 4.10185,0.39217 0.65344,0.21133 1.4261,0.61538 1.71702,0.89786 l 0.52896,0.51361 v 3.88814 3.88813 l 1.40485,-0.0955 c 2.68109,-0.18232 6.03933,0.51437 6.92781,1.43722 0.3748,0.3893 0.40861,0.70288 0.40861,3.78939 0,3.347 -0.003,3.36766 -0.52371,3.87346 -1.06723,1.03629 -5.34825,1.68983 -8.15188,1.24446 -1.15849,-0.18403 -1.26293,-0.17049 -2.43643,0.31578 -1.02404,0.42434 -1.46982,0.50743 -2.70562,0.50431 -1.01739,-0.003 -1.76062,-0.10798 -2.37924,-0.3373 z m 2.16263,-0.46669 c 0.25547,-0.28341 0.27496,-0.28341 0.40944,0 0.20332,0.42853 1.07782,0.37326 2.36107,-0.14922 0.98004,-0.39902 1.08347,-0.49214 0.96716,-0.87077 -0.11691,-0.38055 -0.0791,-0.41348 0.36934,-0.32153 0.43205,0.0885 0.57046,-0.007 1.02388,-0.70215 0.67936,-1.04262 0.89238,-1.90991 0.46907,-1.90991 -0.16884,0 -0.30698,-0.11478 -0.30698,-0.25508 0,-0.14028 0.14048,-0.25506 0.31219,-0.25506 0.17169,0 0.31218,-0.0643 0.31218,-0.14303 0,-0.40689 -0.63209,-1.76887 -1.03604,-2.23236 -0.36865,-0.42301 -0.52016,-0.4897 -0.75333,-0.33159 -0.29767,0.20185 -0.33742,0.15576 -0.37473,-0.43452 -0.0251,-0.39733 -1.32079,-1.02773 -2.46669,-1.20014 -0.63842,-0.0961 -0.78046,-0.0676 -0.78046,0.15657 0,0.15069 -0.14049,0.27399 -0.31219,0.27399 -0.17171,0 -0.3122,-0.12435 -0.3122,-0.27633 0,-0.22056 -0.13648,-0.2545 -0.67639,-0.16821 -1.1233,0.17956 -2.54722,0.85576 -2.57076,1.22082 -0.0377,0.58453 -0.078,0.62905 -0.38225,0.42272 -0.24466,-0.1659 -0.39498,-0.0842 -0.82228,0.4468 -0.68912,0.85643 -1.03748,2.08147 -0.62837,2.20975 0.39317,0.12326 0.3752,0.56567 -0.023,0.56567 -0.40441,0 -0.25533,0.59866 0.45523,1.82809 0.46566,0.8057 0.56755,0.88226 1.04399,0.78457 0.45552,-0.0934 0.51013,-0.0623 0.39795,0.22644 -0.15315,0.39425 0.28718,0.77008 1.33893,1.14281 0.96677,0.3426 1.65979,0.33271 1.98522,-0.0283 z m -1.68101,-0.86978 c -1.01779,-0.37778 -2.05209,-1.30789 -2.39305,-2.15198 -0.13946,-0.34527 -0.21425,-1.07186 -0.1662,-1.61466 0.30398,-3.43365 5.88289,-4.56492 8.22879,-1.6686 0.93979,1.16028 0.87255,3.88186 -0.0959,3.88186 -0.213,0 -0.26243,-0.0926 -0.15889,-0.29759 0.32896,-0.65124 0.48634,-1.49343 0.37143,-1.98762 -0.38649,-1.66207 -1.85006,-2.71671 -3.78167,-2.72502 -1.56454,-0.007 -2.61968,0.43629 -3.39859,1.42699 -0.54776,0.69669 -0.60377,0.89426 -0.53912,1.90154 0.0586,0.91312 0.18086,1.24051 0.6514,1.74455 0.86723,0.92897 2.03155,1.35202 3.45254,1.25447 0.63856,-0.0439 1.32493,-0.1368 1.52526,-0.20657 0.25456,-0.0887 0.36422,-0.0496 0.36422,0.12977 0,0.62758 -2.66012,0.83255 -4.06024,0.31286 z m 0.73022,-1.80845 c 0,-0.31175 -0.11099,-0.42511 -0.41624,-0.42511 -0.23125,0 -0.41625,-0.11338 -0.41625,-0.25508 0,-0.14171 0.185,-0.25508 0.41625,-0.25508 0.22893,0 0.41624,-0.0676 0.41624,-0.1502 0,-0.0826 -0.18731,-0.19024 -0.41624,-0.23915 -0.22894,-0.0489 -0.41625,-0.17263 -0.41625,-0.27491 0,-0.1023 0.18731,-0.18596 0.41625,-0.18596 0.37,0 0.41624,-0.11337 0.41624,-1.02029 v -1.02027 h 1.04063 c 1.27949,0 1.87313,0.40028 1.87313,1.26301 0,0.69838 -0.77483,1.28769 -1.69307,1.28769 -0.32797,0 -0.5963,0.0765 -0.5963,0.17004 0,0.0935 0.42144,0.17004 0.93656,0.17004 0.69374,0 0.93656,0.0661 0.93656,0.25508 0,0.18894 -0.24282,0.25508 -0.93656,0.25508 -0.86025,0 -0.93656,0.0347 -0.93656,0.42511 0,0.26452 -0.11794,0.4251 -0.3122,0.4251 -0.19425,0 -0.31219,-0.16058 -0.31219,-0.4251 z m 2.15782,-2.1451 c 0.52124,-0.60803 0.0642,-1.16355 -0.9611,-1.16822 -0.54004,-0.002 -0.57233,0.0405 -0.57233,0.76262 0,0.73359 0.0253,0.76521 0.61257,0.76521 0.38772,0 0.72572,-0.13201 0.92086,-0.35961 z m 10.30104,3.95986 c 1.51206,-0.47582 1.9018,-0.79553 1.9018,-1.56004 v -0.62783 l -0.9886,0.39739 c -1.2614,0.50708 -2.7896,0.73924 -4.91935,0.74738 l -1.68863,0.007 -0.56128,0.66331 -0.56129,0.6633 0.56129,0.0809 c 0.3087,0.0445 1.59151,0.0583 2.85066,0.0307 1.70021,-0.0373 2.57659,-0.14068 3.4054,-0.40149 z m 0.0287,-1.98652 c 1.33738,-0.43567 1.87313,-0.88141 1.87313,-1.55835 0,-0.31104 -0.0293,-0.56552 -0.065,-0.56552 -0.0358,0 -0.4469,0.15076 -0.91372,0.33504 -1.22176,0.4823 -2.43905,0.67634 -4.2725,0.68108 -1.58403,0.004 -1.61099,0.0114 -1.73638,0.47179 -0.07,0.25719 -0.17576,0.61171 -0.2349,0.78782 -0.10172,0.30288 0.0147,0.31568 2.15263,0.23674 1.47469,-0.0545 2.58563,-0.18952 3.19672,-0.3886 z m -0.93656,-1.81646 c 1.954,-0.34363 2.80969,-0.87514 2.80969,-1.7452 v -0.56324 l -1.24002,0.40922 c -1.39312,0.45976 -4.33203,0.81818 -5.38605,0.65687 -0.60078,-0.092 -0.68063,-0.0647 -0.59169,0.20175 0.0566,0.16944 0.1585,0.5132 0.22656,0.7639 0.0818,0.30131 0.28238,0.47583 0.59169,0.51481 0.68161,0.0858 2.39285,-0.0277 3.58982,-0.23811 z m -16.47114,-0.81756 c 0.11652,-0.53318 0.0652,-0.62533 -0.4927,-0.88483 l -0.62276,-0.28967 v 0.66263 c 0,0.489 0.11941,0.73098 0.45571,0.92343 0.53888,0.30839 0.49666,0.33472 0.65975,-0.41156 z m 16.89398,-1.27079 c 1.54238,-0.37922 2.38685,-0.85688 2.38685,-1.35008 0,-1.58661 -6.47651,-2.38006 -9.89671,-1.21246 l -0.77588,0.26487 0.80957,0.4797 c 0.87433,0.51808 2.16238,1.64538 2.16238,1.89254 0,0.40433 3.5697,0.35424 5.31379,-0.0746 z m -15.96732,-0.42279 c 0.5295,-0.58516 0.55597,-0.68707 0.17847,-0.68707 -0.1523,0 -0.71425,-0.18089 -1.24877,-0.402 l -0.97182,-0.40197 v 0.64471 c 0,0.49396 0.12822,0.72712 0.54838,0.99715 0.72907,0.46857 0.9538,0.44587 1.49374,-0.15082 z m 2.23952,-1.57655 c 1.09683,-0.48843 1.42993,-0.55181 3.00275,-0.57142 1.32625,-0.0166 2.00349,-0.11218 2.70563,-0.38214 0.51511,-0.19806 1.10046,-0.36179 1.30078,-0.36383 0.22184,-0.003 0.36422,-0.13444 0.36422,-0.33809 0,-0.33068 -0.008,-0.33078 -0.67641,-0.009 -1.14172,0.54979 -3.01812,0.85341 -5.24685,0.84897 -2.2943,-0.004 -3.46382,-0.17215 -4.75308,-0.68107 -0.46681,-0.18427 -0.87798,-0.33504 -0.91372,-0.33504 -0.0358,0 -0.065,0.25448 -0.065,0.56552 0,0.67599 0.59144,1.1898 1.7783,1.54487 1.12895,0.33775 1.11449,0.33936 2.50334,-0.27912 z m 4.84081,-1.60669 c 1.69897,-0.34792 2.53257,-0.90257 2.53257,-1.68509 0,-0.55156 -0.25401,-0.76205 -0.51048,-0.423 -0.19352,0.25584 -1.97572,0.67539 -3.68671,0.8679 -1.99893,0.22491 -4.48978,-0.005 -6.21782,-0.57619 l -1.24001,-0.40923 v 0.56325 c 0,0.30979 0.16191,0.69556 0.35983,0.85725 1.34971,1.10277 5.46341,1.48073 8.76262,0.80511 z m 0.1813,-2.01007 c 1.52851,-0.3719 2.35127,-0.97718 2.35127,-1.72975 0,-0.32683 -0.0703,-0.5648 -0.15609,-0.52885 -1.3746,0.57558 -2.32871,0.82639 -3.79829,0.99845 -1.95829,0.22926 -4.57879,0.0912 -4.57871,-0.24129 3e-5,-0.14088 0.77528,-0.203 2.6536,-0.21266 2.24305,-0.0115 2.84237,-0.0738 3.87417,-0.40212 1.54827,-0.49278 2.00532,-0.86391 2.00532,-1.62827 v -0.59862 l -0.82595,0.34428 c -2.6294,1.096 -7.86556,1.10273 -10.12607,0.013 l -0.703,-0.33889 v 0.66211 c 0,0.50372 0.12447,0.74211 0.52031,0.9965 0.28617,0.18392 0.52032,0.41904 0.52032,0.52249 0,0.23486 -0.12564,0.23612 -0.65072,0.007 -0.38872,-0.16997 -0.4111,-0.13469 -0.35054,0.55266 0.062,0.70392 0.1119,0.7534 1.20937,1.19951 0.6296,0.25592 1.65981,0.53898 2.28939,0.62906 1.48795,0.21285 4.39296,0.0899 5.76562,-0.24413 z m 0.575,-4.1848 c 0.81899,-0.26813 1.34791,-0.56166 1.55404,-0.86247 0.28653,-0.41812 0.27883,-0.48639 -0.0926,-0.82175 -1.27743,-1.15329 -6.08859,-1.60925 -9.06218,-0.85885 -2.55933,0.64586 -2.98574,1.57155 -1.09221,2.37102 1.94161,0.81978 6.44239,0.90886 8.69298,0.17205 z m -9.25438,-1.16569 c 0,-0.15152 0.65195,-0.51612 0.92289,-0.51612 0.26858,0 0.092,0.48183 -0.21147,0.57696 -0.47217,0.14804 -0.71142,0.12758 -0.71142,-0.0609 z m 1.74713,-0.54514 c -0.17549,-0.23199 -0.016,-0.32014 0.88999,-0.49194 1.32259,-0.2508 2.77415,-0.20064 2.77415,0.0959 0,0.19036 -0.2508,0.25611 -0.9886,0.25913 -0.54373,0.002 -1.3403,0.0708 -1.77018,0.15235 -0.48226,0.0915 -0.82898,0.0857 -0.90536,-0.0153 z"
       id="path4524"
       inkscape:connector-curvature="0" />
  </g>
</svg>
